<?xml version="1.0" encoding="UTF-8"?>
<svg width="570px" height="470px" viewBox="0 0 570 470" version="1.1" xmlns="http://www.w3.org/2000/svg" xmlns:xlink="http://www.w3.org/1999/xlink">
    <!-- Generator: Sketch 54.1 (76490) - https://sketchapp.com -->
    <title>ecommerce_image_header_570x500px_8 (1)</title>
    <desc>Created with Sketch.</desc>
    <defs>
        <path d="M351.391002,10.03584 L552.913768,130.0694 C578.013764,145.047252 575.058588,171.033765 546.287617,188.093095 L314.307351,325.652419 C285.537379,342.711749 241.981533,344.340775 217.040493,329.305992 L16.8083671,208.824975 C-7.91673341,193.97297 -4.75061691,168.164242 23.8583998,151.159845 L254.549026,14.0489774 C283.158043,-2.95541903 326.506946,-4.76023221 351.391002,10.03584 Z" id="path-1"></path>
        <linearGradient x1="68.5147805%" y1="41.3391386%" x2="31.485289%" y2="58.6609749%" id="linearGradient-3">
            <stop stop-color="#2551C3" offset="0%"></stop>
            <stop stop-color="#2551C3" stop-opacity="0" offset="100%"></stop>
        </linearGradient>
        <linearGradient x1="71.2153746%" y1="38.6279205%" x2="28.7839957%" y2="61.3719362%" id="linearGradient-4">
            <stop stop-color="#2551C3" offset="0%"></stop>
            <stop stop-color="#2551C3" stop-opacity="0" offset="100%"></stop>
        </linearGradient>
        <polygon id="path-5" points="120.200506 103.757655 60.2508301 138.487541 0.157080377 104.006865 0.0130066555 34.7963021 59.9626827 0.0674127686 120.056432 34.5480891"></polygon>
        <polygon id="path-7" points="100.226731 87.4800038 50.3053601 116.656652 0.26431199 87.6887509 0.144634739 29.5432036 50.0660056 0.366555858 100.107054 29.3344565"></polygon>
        <polygon id="path-9" points="0.797694999 2.50084015 1.91247376 83.6250935 61.1602727 118.239722 124.839267 157.252828 128.168647 155.14412 128.168647 72.8714809 4.04431364 0.352118293"></polygon>
        <polygon id="path-11" points="0.777752624 0.480161308 124.902086 72.9995239 124.902086 155.272163 0.777752624 82.7528005"></polygon>
        <path d="M49.2154446,25.297093 L7.9196692,1.15123059 C3.68810577,-1.32111705 0.260219132,0.907393555 0.260219132,6.13190182 C0.260219132,11.3574094 3.68810577,17.5972391 7.9196692,20.0695867 L49.2154446,44.2154492 C53.4460072,46.6897955 56.8748946,44.4592862 56.8748946,39.2357773 C56.8748946,34.011269 53.4460072,27.7694406 49.2154446,25.297093 Z" id="path-13"></path>
        <path d="M1.82916217,7.00436411 C1.82916217,7.00436411 -1.1712263,17.82256 0.837738191,24.7118688 C2.84770716,31.6001772 3.25954488,41.5149391 2.16064131,44.4903682 C1.21843696,47.0385921 1.36810482,49.9119721 4.47295943,53.0354723 C7.88418113,56.46612 13.3113987,61.8296961 16.2967199,61.3364592 C19.2820411,60.8422218 19.8415378,56.8172887 19.0178623,55.826813 C18.1951914,54.8373377 10.2537547,51.7578587 9.22717389,45.9990928 C7.87212734,38.4174514 11.8448546,17.743522 12.7348259,13.5625139 C13.6258016,9.38150583 15.2651167,3.6927736 15.0481485,1.75684379 C14.8321848,-0.177085052 7.11776118,0.118056701 7.11776118,0.118056701 L1.82916217,7.00436411 Z" id="path-15"></path>
        <path d="M19.769215,0.472226805 C19.769215,0.472226805 20.6521549,13.5685168 21.2297322,21.3542562 C21.808314,29.1409961 20.7566211,37.6610882 19.8696633,39.7120732 C18.9837099,41.7630583 12.9759016,70.9150597 12.8844937,74.5408011 C12.7940903,78.165542 12.1974279,80.8708413 12.1974279,80.8708413 C12.1974279,80.8708413 11.8358143,82.7207298 8.68274451,82.1454535 C5.52967475,81.5711777 5.16303873,81.5221541 5.16303873,81.5221541 C5.16303873,81.5221541 5.12888633,75.9754901 4.4347891,72.0305954 C3.74169636,68.0847003 1.93362832,57.084417 3.0546305,51.7778683 C4.17563269,46.4713196 7.56977819,40.3964019 7.28249626,39.107783 C6.99521434,37.8191641 4.6045466,29.4981676 3.65531088,27.0950134 C2.70607516,24.6918592 0.0803585795,4.95237857 0.0803585795,4.95237857 L12.7338214,0.490235454 L19.769215,0.472226805 Z" id="path-17"></path>
        <path d="M1.41933341,16.3958747 C1.41933341,16.3958747 -0.285272957,20.464829 2.12447994,31.016897 C4.53423285,41.5689651 6.18761062,59.0223477 5.64920814,62.347945 C5.10980117,65.6735422 3.91748075,72.2937218 3.53376853,79.0569701 C3.1510608,85.8202184 3.31378692,96.0571351 2.828622,99.2476675 C2.34446156,102.4392 3.98879899,101.775882 4.9440616,102.033005 C5.89932422,102.290129 8.02480864,102.845395 9.17393633,100.640336 C10.3240685,98.4352773 15.4007218,83.943317 16.9285392,79.7533046 C18.4573612,75.5632922 19.1102747,69.1572154 19.0439789,65.1322823 C18.977683,61.1073491 20.5858591,51.2826304 21.8635605,42.8525816 C23.1422664,34.4235332 26.2260269,27.5962542 26.0944397,23.3582187 C25.9618481,19.1201832 27.0979175,0.75136087 27.0979175,0.75136087 L1.41933341,16.3958747 Z" id="path-19"></path>
        <path d="M7.05950121,4.01292736 C11.2431698,4.37710227 13.8729043,4.86733772 17.9470842,8.70618148 C19.914865,11.0052857 20.508514,13.7806187 20.508514,13.7806187 L20.5306126,14.2138267 C20.5306126,14.2138267 19.7521388,15.8486119 17.623641,14.7700939 C15.4941386,13.6905754 18.5176302,15.7965869 17.5332376,15.6955384 C16.5478405,15.5934894 9.52349615,12.2368772 8.55115734,10.9762718 C6.57132284,10.8542132 0.211945753,0.816392103 0.211945753,0.816392103" id="path-21"></path>
        <polygon id="path-23" points="1.07780945 0.254122052 24.8157338 20.3367675 20.7907735 23.0150539 0.0863854729 9.7626889"></polygon>
        <path d="M4.62262728,2.61125415 C4.62262728,2.61125415 15.8768463,-2.42316382 18.5497736,3.56271113 C18.8460959,4.22502923 18.5146167,2.59324551 19.3141846,2.61125415 C29.3650339,2.83936371 29.1400299,13.8266408 29.1400299,13.8266408 L28.1255028,65.0312337 C28.1255028,65.0312337 29.5438317,68.6179564 27.4715849,69.4753682 C25.5881807,70.2547425 23.505889,69.8035258 23.505889,69.8035258 L0.167748535,5.35257078 L4.62262728,2.61125415 Z" id="path-25"></path>
        <path d="M0.053281232,8.58612381 C0.053281232,8.58612381 4.66084128,4.52417291 13.7242846,0 C14.8262016,0.789379129 8.05699575,3.56471209 12.0950144,7.13542706 C20.3227284,14.4169243 39.5686082,33.2289595 33.0284243,69.8485474 C28.9662981,71.0611298 20.3408091,76.8579139 16.1732123,77.6402897 C12.0076244,78.421665 2.41481899,76.1285636 2.95523043,68.7870376 C3.4946374,61.4415096 6.37348351,55.4166159 10.5561476,49.4377444 C14.7388116,43.4588728 7.9123503,33.0418696 7.9123503,33.0418696 L0.053281232,8.58612381 Z" id="path-27"></path>
        <path d="M3.12594874,8.96900352 C3.12594874,8.96900352 6.69186071,15.1769851 7.75259395,24.0532483 C8.46075394,29.9890992 3.84314906,38.9023802 4.50610734,47.1343339 C5.73157568,62.3746536 7.76464774,72.0142834 7.76464774,72.0142834 L15.5905689,70.5615857 C15.5905689,70.5615857 16.855212,60.9989929 16.0134559,57.8294706 C15.1727043,54.6599483 13.4128514,50.9951882 13.039184,47.3374314 C12.6655166,43.6766732 14.0687783,40.4421197 13.7001333,36.8433913 C13.3314883,33.2436624 12.3792392,28.972611 12.3792392,28.972611 C12.3792392,28.972611 15.2359867,29.5749003 16.0727204,23.1728255 C16.9114631,16.7787545 13.4510217,14.7267689 12.0648362,13.025952 C10.6836731,11.331138 1.00247328,3.73048753 0.482151477,0.115751412 C0.6448776,1.2462944 1.12903804,3.92958315 2.13352029,6.3457436 C2.70707965,7.72340528 3.12594874,8.96900352 3.12594874,8.96900352 Z" id="path-29"></path>
        <path d="M4.76928169,1.61177412 C4.76928169,1.61177412 -3.66736467,6.49411905 2.27314332,15.1072558 C8.21063786,23.7203926 11.7695184,26.1035372 14.992902,30.5526741 C18.2162855,35.0028114 19.6014665,35.280945 19.6014665,35.280945 C20.0243535,35.643119 20.0534835,35.9372602 22.5606712,35.9582703 C28.6990622,36.0112958 40.163218,34.7907096 44.4342765,33.1269105 C44.7426526,29.9283742 42.9456338,30.7157524 44.6864016,29.2100292 C46.4281738,27.7043061 24.5324698,26.6317909 23.1583381,27.577245 C21.7852109,28.5216986 17.792394,-5.04542326 4.76928169,1.61177412 Z" id="path-31"></path>
        <path d="M18.7386599,12.2929041 C23.1222204,12.6240632 27.6524354,11.7826591 30.5513711,9.51757118 C33.4513113,7.25448424 33.0384691,4.5962075 33.0384691,4.5962075 L39.5665992,1.97995095 C39.5665992,1.97995095 39.0482864,-0.133063909 36.2568302,0.650312337 C33.4663786,1.43568954 30.190762,2.39915228 28.9974371,2.29110039 C27.8061211,2.18504945 21.1001977,5.01040644 19.6356626,6.2760143 C17.2600621,5.96386437 0.053281232,13.7275932 0.053281232,13.7275932" id="path-33"></path>
        <path d="M2.1405245,3.07089602 C2.1405245,3.07089602 -1.66551766,8.62067201 1.15957551,11.4359928 C3.97768329,14.2493169 7.63603425,12.7338357 10.0010893,12.632005 C12.3671422,12.5261809 18.4384481,12.6939021 22.7793719,11.4359928 C27.117302,10.1790819 35.1664724,8.01967091 32.6048284,4.26690819 C30.048174,4.26690819 26.620341,3.03994746 23.7613188,3.07089602 C20.9022966,3.10883296 13.5716239,0.299502212 13.5716239,0.299502212 C13.5716239,0.299502212 15.2181812,5.52082412 9.01914238,5.46192201 C2.82409526,5.40401825 2.1405245,3.07089602 2.1405245,3.07089602 Z" id="path-35"></path>
        <path d="M0.152215987,12.725849 C0.152215987,12.725849 7.49586157,46.9000498 6.4420649,50.0897483 C1.08526513,66.4555476 5.72556299,97.962182 5.72556299,97.962182 C5.72556299,97.962182 9.01269012,103.634754 15.5869444,97.962182 C17.6236859,96.1951189 17.1666415,69.4325996 18.7942384,60.2877987 C20.1214634,52.8242035 23.172085,29.290318 23.172085,29.290318 L21.1702705,17.4040736 C21.1702705,17.4040736 4.24765307,-17.469964 0.152215987,12.725849 Z" id="path-37"></path>
        <path d="M0.797332902,13.4546377 C0.797332902,13.4546377 3.90383769,43.7982052 6.36369451,52.7243695 C7.01932369,61.6475387 4.35589251,100.053706 5.03147996,104.289665 C5.70507159,108.532613 8.68384344,108.351914 11.2754249,108.586524 C13.8670063,108.821134 18.1889697,104.597154 18.1889697,104.597154 C18.1889697,104.597154 17.7209483,68.7028125 22.2305195,58.5666593 C23.989841,54.5842782 27.4665717,20.7924419 23.977866,5.47689712 C20.4911562,-9.836651 0.797332902,13.4546377 0.797332902,13.4546377 Z" id="path-39"></path>
        <path d="M16.5464041,2.07155697 C11.5917634,-0.016971792 1.02086553,-1.33278485 2.5536607,11.9092063 C4.09044751,25.1521958 7.93840204,35.1705448 8.46130873,43.9419663 C8.98521332,52.7223728 0.682572847,78.3318086 0.682572847,78.3318086 C0.682572847,78.3318086 22.386194,91.4050802 33.4480653,88.7904259 C44.5079409,86.1697815 50.1671084,78.836969 50.1671084,78.836969 C50.1671084,78.836969 45.279328,71.159729 45.1565846,63.6881471 C45.0328434,56.2155669 46.2103813,47.7496377 46.2103813,47.7496377 C46.2103813,47.7496377 50.4425326,25.4746598 42.2666271,17.3781167 C29.0572458,4.29985343 29.8455975,7.68123341 16.5464041,2.07155697 Z" id="path-41"></path>
        <path d="M0.91309087,10.3897317 L0.26644291,11.8552959 C0.26644291,11.8552959 4.31198432,16.1401742 9.3743996,16.6073977 L9.38437873,16.608396 C9.43327649,16.6123894 9.49115548,16.6183794 9.54005324,16.6133877 C9.6847507,16.6283628 9.83044608,16.6333545 9.97514354,16.6373479 C10.0330225,16.6433379 10.1018786,16.6413413 10.1597575,16.646333 C11.5328865,16.6672981 12.9559112,16.3847677 14.3959004,15.6400055 C14.0955285,8.24230088 14.6344018,11.729505 14.827997,11.4499696 C14.8639219,11.3850774 14.8838801,11.378089 14.8838801,11.378089 L14.6932787,10.9537942 L13.9328686,9.29355365 L13.488797,7.21201327 L12.0997014,0.660901549 L2.01578531,7.7571073 L0.91309087,10.3897317 Z" id="path-43"></path>
        <path d="M61.2649047,13.9927434 L64.5550255,10.3877351 C65.0889093,9.99239215 70.895768,1.63428374 73.1590359,1.1011698 C75.4223038,0.568055863 76.2076617,0.547090708 75.3105374,1.81598175 C74.4124153,3.08487279 72.7219498,4.95576327 72.4415361,6.10185841 C72.1621203,7.2469552 70.8698223,8.61168695 74.5930376,8.95910951 C78.316253,9.30553374 83.9305144,9.24762998 85.3485495,11.8153623 C86.7665846,14.3840929 88.5797935,16.0353485 86.0650514,16.1012389 C83.5513073,16.1681278 77.8153004,14.4130448 75.3105374,14.6726134 C72.8047766,14.932182 65.9890273,17.5298645 65.9890273,17.5298645 L63.6678804,17.7225442 C62.7587812,18.4992533 62.2318829,19.219057 59.8408821,21.0819607 C56.2823225,23.8543529 45.6645226,32.4600498 43.213647,33.5142976 C40.7627714,34.5685454 34.8910483,35.7475857 29.3566199,36.2777046 C23.8231894,36.8078236 2.48979423,31.1961504 0.952009497,22.4626659 C-0.585775236,13.7291814 10.650731,12.1018861 10.650731,12.1018861 C10.650731,12.1018861 29.8465954,20.1385288 34.2064796,22.4626659 C37.5494899,24.2447041 37.1223829,24.4593473 37.1223829,24.4593473 C37.1223829,24.4593473 37.4636693,22.7611698 41.1349932,21.0819607 C44.806317,19.4027517 48.7670358,18.7099032 52.2198165,16.9378485 C55.6725973,15.1647954 60.5334341,14.1744414 60.5334341,14.1744414 L61.2649047,13.9927434 Z" id="path-45"></path>
    </defs>
    <g id="Page-1" stroke="none" stroke-width="1" fill="none" fill-rule="evenodd">
        <g id="Retargeting-Copy" transform="translate(-845.000000, -166.000000)">
            <g id="ecommerce_image_header_570x500px_8-(1)" transform="translate(845.000000, 166.000000)">
                <g id="Group-139" transform="translate(0.000000, 120.221239)">
                    <path d="M1.99050199,184.276719 C5.18461068,176.00574 12.5255622,167.887577 23.8583998,161.151739 L254.549026,24.0398718 C283.158043,7.03547538 326.506946,5.23166099 351.391002,20.0267344 L552.913768,140.061293 C560.162745,144.387052 565.072375,149.630698 567.693644,155.311815 L569.906026,155.311815 L569.906026,163.87444 C570.710802,175.71709 562.699037,188.35278 546.287617,198.083989 L314.307351,335.644312 C285.537379,352.702644 241.981533,354.33167 217.040493,339.297886 L16.8083671,218.815869 C4.74773259,211.571647 -0.676753716,201.719584 0.252986842,191.553901 L0.252986842,184.276719 L1.99050199,184.276719 Z" id="Rectangle-825" fill="#2551C3"></path>
                    <path d="M351.391002,10.03584 L552.913768,130.0694 C578.013764,145.047252 575.058588,171.033765 546.287617,188.093095 L314.307351,325.652419 C285.537379,342.711749 241.981533,344.340775 217.040493,329.305992 L16.8083671,208.824975 C-7.91673341,193.97297 -4.75061691,168.164242 23.8583998,151.159845 L254.549026,14.0489774 C283.158043,-2.95541903 326.506946,-4.76023221 351.391002,10.03584 Z" id="background" fill="#2D67F7"></path>
                    <g id="Clipped">
                        <mask id="mask-2" fill="white">
                            <use xlink:href="#path-1"></use>
                        </mask>
                        <g id="background1"></g>
                        <g id="Group" mask="url(#mask-2)" fill-rule="nonzero">
                            <g transform="translate(4.157897, 186.773693)">
                                <path d="M235.036414,106.5479 C233.775765,108.698294 238.683396,104.83098 235.359323,104.612245 C231.17849,104.334582 228.868135,108.737247 227.742449,106.382101 C225.189161,101.053557 230.595653,98.8012862 224.489357,95.7210185 C220.541458,93.727434 212.266767,95.514269 208.202901,98.2729264 C206.040505,99.7391498 203.151311,100.784883 202.065614,102.952257 C199.252399,108.562459 197.785808,100.619084 152.103556,130.858444 C142.238309,137.388532 145.81831,139.239289 131.884198,145.193075 C104.392869,156.940841 103.415142,159.528705 94.675581,157.704915 C90.8496486,156.904884 71.8149602,170.251712 71.8149602,170.251712 L149.559266,170.587306 C149.559266,170.587306 166.92342,163.566812 237.871622,120.431078 C238.755376,119.894728 254.160077,113.542425 253.729197,112.263974 C253.312314,111.025475 245.642454,112.691456 246.831122,112.463732" id="shadow" fill="url(#linearGradient-3)"></path>
                                <path d="M153.352207,12.4948604 C152.091559,14.6452549 156.99919,10.7779408 153.675117,10.5592058 C149.493284,10.282541 147.182929,14.6852065 146.057243,12.3290613 C143.504955,7.00151653 148.910447,4.74824673 142.80515,1.66897776 C138.857252,-0.324606686 130.582561,1.46222827 126.517695,4.21988692 C124.355299,5.68611035 121.467105,6.73184328 120.381408,8.90021594 C117.568193,14.5094195 116.101602,6.56604417 70.4183499,36.8054043 C60.5531028,43.3364908 49.4631974,40.655739 35.5290857,46.6105238 C8.03775708,58.3572907 21.7299363,65.4756656 12.9913748,63.6518754 C9.16444268,62.8518448 0.126964571,76.1986729 0.126964571,76.1986729 L67.8750596,76.5342663 C67.8750596,76.5342663 55.2325874,73.6757299 126.180789,30.5399958 C127.064543,30.0036457 145.17349,16.0535485 146.386151,16.6468297 C153.014302,19.8839074 157.700994,19.3715283 158.889662,19.1438042" id="shadow-copy" fill="url(#linearGradient-4)"></path>
                            </g>
                        </g>
                    </g>
                </g>
                <g id="box" transform="translate(173.185841, 79.026549)">
                    <g id="box1">
                        <polygon id="Polygon-1" fill="#F7FBFF" fill-rule="nonzero" points="120.200506 103.757655 60.2508301 138.487541 0.157080377 104.006865 0.0130066555 34.7963021 59.9626827 0.0674127686 120.056432 34.5480891"></polygon>
                        <g id="Clipped">
                            <mask id="mask-6" fill="white">
                                <use xlink:href="#path-5"></use>
                            </mask>
                            <g id="Polygon-11"></g>
                            <g id="Group" mask="url(#mask-6)">
                                <g transform="translate(-23.011775, -69.622630)">
                                    <polygon id="Polygon-1-copy" fill="#E1EDF9" fill-rule="nonzero" points="143.212281 104.192649 83.2626051 138.922535 23.1688554 104.441859 23.0247817 35.2312965 82.9744577 0.50240708 143.068207 34.9830834"></polygon>
                                    <polygon id="Polygon-1-copy-2" fill="#C9DBED" fill-rule="nonzero" points="203.133943 207.507083 143.184267 242.235972 83.0905171 207.755296 82.9474439 138.54573 142.89712 103.815844 202.99087 138.29652"></polygon>
                                    <polygon id="Shape-1514" fill-opacity="0.501961" fill="#ADC7DF" fill-rule="evenodd" points="71.3325005 112.642857 93.8550252 131.749279 93.8550252 202.358407 107.201855 194.051744 107.201855 117.627054"></polygon>
                                    <polygon id="Rectangle-823" fill="#2ECFFF" fill-rule="evenodd" points="15.8821268 57.5774463 119.341066 117.359901 103.881156 126.293576 0.422216046 66.5111214"></polygon>
                                    <polygon id="Rectangle-823-copy" fill="#FFFFFF" fill-rule="evenodd" points="9.79201053 61.0972863 113.25095 120.878745 109.971272 122.773736 6.51233233 62.9922781"></polygon>
                                    <polygon id="Rectangle-823-copy-2" fill-opacity="0.2" fill="#161677" fill-rule="evenodd" points="103.887159 125.837024 104.002218 145.930317 119.335063 137.039506 119.220004 116.945216"></polygon>
                                    <polygon id="Rectangle-823-copy-21" fill="#D1E3F5" fill-rule="evenodd" points="109.927249 122.33413 110.042308 142.427423 113.294973 140.541403 113.179914 120.44811"></polygon>
                                </g>
                            </g>
                        </g>
                    </g>
                    <g id="paper" transform="translate(10.005120, 29.064475)">
                        <path d="M12.6574768,0.50240708 L25.1168522,7.73746776 C26.3254706,8.43924273 26.1733928,9.66535525 24.7776786,10.4757857 L18.1682966,14.3146144 C16.7715819,15.1250449 14.6605017,15.2137636 13.4518833,14.5109918 L0.992507862,7.2759311 C-0.216110583,6.57415613 -0.0650332773,5.34804362 1.3306809,4.53761315 L7.94106341,0.69878445 C9.33677759,-0.111646018 11.4488583,-0.200364728 12.6574768,0.50240708 Z" id="Rounded-Rectangle-1" fill="#FFFFFF"></path>
                        <path d="M7.86202296,3.28657965 L20.4894844,10.6203274" id="Shape-1513" stroke="#ADC7DF" stroke-width="0.5" fill="#ADC7DF"></path>
                        <path d="M5.26969648,4.79180721 L11.1326966,8.19701075" id="Shape-1513-copy" stroke="#ADC7DF" stroke-width="0.5" fill="#ADC7DF"></path>
                    </g>
                </g>
                <g id="box-copy" transform="translate(221.106195, 33.628319)">
                    <g id="box2">
                        <polygon id="Polygon-12" fill="#E1EDF9" fill-rule="nonzero" points="100.226731 87.4800038 50.3053601 116.656652 0.26431199 87.6887509 0.144634739 29.5432036 50.0660056 0.366555858 100.107054 29.3344565"></polygon>
                        <g id="Clipped">
                            <mask id="mask-8" fill="white">
                                <use xlink:href="#path-7"></use>
                            </mask>
                            <g id="Polygon-13"></g>
                            <g id="Group" mask="url(#mask-8)">
                                <g transform="translate(-18.792296, -57.929809)">
                                    <polygon id="Polygon-1-copy1" fill="#C9DBED" fill-rule="nonzero" points="119.019027 87.2832422 69.0976557 116.45989 19.0566077 87.4919893 18.9369304 29.346442 68.8583012 0.169794267 118.899349 29.137695"></polygon>
                                    <polygon id="Polygon-1-copy-21" fill="#ADC7DF" fill-rule="nonzero" points="168.917459 174.080074 118.996088 203.25772 68.9550403 174.288821 68.8353631 116.144272 118.756734 86.9666258 168.797782 115.934527"></polygon>
                                    <polygon id="Rectangle-8231" fill="#0B5AE3" fill-rule="evenodd" points="12.988971 48.120694 99.1406351 98.3448393 86.2673521 105.850745 0.114690699 55.6256006"></polygon>
                                    <polygon id="Rectangle-823-copy1" fill="#FFFFFF" fill-rule="evenodd" points="7.91764749 51.0771118 94.0693116 101.302256 91.3386756 102.893328 5.18701154 52.6691827"></polygon>
                                    <polygon id="Rectangle-823-copy-22" fill-opacity="0.2" fill="#161677" fill-rule="evenodd" points="86.2723386 105.467209 86.3680804 122.347756 99.1356485 114.878806 99.0399067 97.9972604"></polygon>
                                    <polygon id="Rectangle-823-copy-23" fill="#D1E3F5" fill-rule="evenodd" points="91.3017751 102.523776 91.3975169 119.405321 94.106212 117.82124 94.0104702 100.939695"></polygon>
                                </g>
                            </g>
                        </g>
                    </g>
                    <g id="paper1" transform="translate(8.135086, 23.970955)">
                        <path d="M10.8696864,1.17857197 L21.2447067,7.25720672 C22.250993,7.8464927 22.1253319,8.87724378 20.9624679,9.55841843 L15.4583116,12.7835107 C14.296445,13.4636866 12.5381867,13.537597 11.5309032,12.948311 L1.15588279,6.86967627 C0.149596564,6.2793915 0.276254989,5.24963921 1.43812164,4.56846456 L6.94227789,1.34337229 C8.10514185,0.66319643 9.86340014,0.589285984 10.8696864,1.17857197 Z" id="Rounded-Rectangle-11" fill="#FFFFFF"></path>
                        <path d="M6.87645541,3.51773769 L17.3920966,9.67927199" id="Shape-15131" stroke="#ADC7DF" stroke-width="0.5" fill="#ADC7DF"></path>
                        <path d="M4.71827564,4.78320437 L9.60011019,7.64373837" id="Shape-1513-copy1" stroke="#ADC7DF" stroke-width="0.5" fill="#ADC7DF"></path>
                    </g>
                </g>
                <polyline id="Shape-1509-copy" stroke-opacity="0.301961" stroke="#F7FBFF" stroke-width="0.5" points="508.461519 249.690265 534.690265 234.771301 534.690265 216.823172 442.212389 161.39874 442.212389 102.566372"></polyline>
                <g id="graph" transform="translate(371.592920, 5.044248)">
                    <polygon id="board-copy-4" fill="#0850D3" points="0.797694999 2.50084015 1.91247376 83.6250935 61.1602727 118.239722 124.839267 157.252828 128.168647 155.14412 128.168647 72.8714809 4.04431364 0.352118293"></polygon>
                    <g id="Clipped">
                        <mask id="mask-10" fill="white">
                            <use xlink:href="#path-9"></use>
                        </mask>
                        <g id="board-copy-41"></g>
                        <polygon id="Shape-1515" fill="#2283F9" mask="url(#mask-10)" points="131.021404 71.2239274 121.050216 77.2259438 122.047335 161.254173 135.009879 159.253501"></polygon>
                    </g>
                    <polygon id="board-copy" fill="#0E67F1" points="0.777752624 2.48083343 124.902086 75.000196 124.902086 157.272835 0.777752624 84.7534726"></polygon>
                    <g id="Clipped" transform="translate(0.000000, 2.000672)">
                        <mask id="mask-12" fill="white">
                            <use xlink:href="#path-11"></use>
                        </mask>
                        <g id="board-copy1"></g>
                        <polygon id="board-copy-3" fill="#0B5AE3" mask="url(#mask-12)" points="-51.6786705 0.480161308 72.4466598 72.9995239 72.4466598 155.272163 -51.6786705 82.7528005"></polygon>
                    </g>
                    <g id="graph1" transform="translate(9.971187, 45.855831)">
                        <polygon id="Rectangle-822" fill="#0644BF" points="0.486593949 0.065596505 12.3034482 6.86588104 12.3034482 45.6869228 0.486593949 38.8876386"></polygon>
                        <polygon id="Rectangle-822-copy" fill="#0644BF" points="23.4253108 22.508136 35.2431622 29.3074202 35.2431622 58.8863571 23.4253108 52.0870729"></polygon>
                        <polygon id="Rectangle-822-copy-2" fill="#0644BF" points="47.0600165 25.9392887 58.8768708 32.7395732 58.8768708 72.4849255 47.0600165 65.6856413"></polygon>
                        <polygon id="Rectangle-822-copy-3" fill="#00BFF7" points="69.9987333 46.5332071 81.8155876 53.3324913 81.8155876 85.6843598 69.9987333 78.8850756"></polygon>
                        <polygon id="Rectangle-822-copy-4" fill="#2ECFFF" points="90.8524748 30.8029226 102.669329 37.6022068 102.669329 97.6833908 90.8524748 90.8841066"></polygon>
                    </g>
                </g>
                <g id="page" transform="translate(251.371681, 0.000000)">
                    <g id="web-copy">
                        <polygon id="Rectangle-821-copy-3" fill="#C1D5EB" points="167.937421 96.3386133 3.47092288 0.215855736 0.546460177 1.51198948 3.47092288 219.882045 164.975927 317.276952 167.937421 316.005801"></polygon>
                        <polygon id="Rectangle-821" fill="#FFFFFF" points="164.958913 97.6127617 0.492414665 1.49000417 0.492414665 221.156193 164.958913 317.277951"></polygon>
                        <path d="M10.926201,17.0386125 C9.1236831,15.9853164 7.66145175,16.9356812 7.66145175,19.1601945 C7.66145175,21.3857071 9.1236831,24.0419319 10.926201,25.0952279 C12.7287189,26.148524 14.1889486,25.1991585 14.1889486,22.9746452 C14.1889486,20.7501319 12.7287189,18.0919085 10.926201,17.0386125 Z" id="Ellipse-818-copy-3" fill="#CFE3F3"></path>
                        <g id="line" transform="translate(18.015171, 25.982635)" stroke="#C9DBED" stroke-width="0.5">
                            <path d="M115.616361,102.194699 L13.8036241,42.6904684" id="Shape-827"></path>
                            <path d="M15.5571007,9.10791284 L0.764643911,0.460692102" id="Shape-827-copy-2"></path>
                            <path d="M98.2127054,106.524805 L31.2072798,67.3639781" id="Shape-827-copy"></path>
                            <path d="M122.578224,188.43706 L94.7317741,172.162937" id="Shape-827-copy-3"></path>
                            <path d="M118.22756,193.951375 L99.0824378,182.761853" id="Shape-827-copy-4"></path>
                            <path d="M78.6332174,162.753226 L50.7867678,146.479103" id="Shape-827-copy-5"></path>
                            <path d="M74.2815529,168.266541 L55.1384324,157.078019" id="Shape-827-copy-51"></path>
                            <path d="M35.5579435,137.578051 L7.71249473,121.303928" id="Shape-827-copy-6"></path>
                            <path d="M31.2072798,143.091367 L12.0641593,131.902844" id="Shape-827-copy-61"></path>
                        </g>
                        <g id="cta" transform="translate(60.050569, 199.866422)">
                            <path d="M49.2154446,25.297093 L7.9196692,1.15123059 C3.68810577,-1.32111705 0.260219132,0.907393555 0.260219132,6.13190182 C0.260219132,11.3574094 3.68810577,17.5972391 7.9196692,20.0695867 L49.2154446,44.2154492 C53.4460072,46.6897955 56.8748946,44.4592862 56.8748946,39.2357773 C56.8748946,34.011269 53.4460072,27.7694406 49.2154446,25.297093 Z" id="Rounded-Rectangle-829-copy-3" fill="#C1D5EB"></path>
                            <g id="Clipped">
                                <mask id="mask-14" fill="white">
                                    <use xlink:href="#path-13"></use>
                                </mask>
                                <g id="Rounded-Rectangle-829-copy-31"></g>
                                <path d="M51.4533291,24.4366681 L10.1575537,0.290805644 C5.92599031,-2.18154199 2.49810367,0.0469686091 2.49810367,5.27147687 C2.49810367,10.4959851 5.92599031,16.7358148 10.1575537,19.2091618 L51.4533291,43.3550242 C55.6838917,45.8293705 59.1127792,43.5988612 59.1127792,38.3753523 C59.1127792,33.150844 55.6838917,26.9090157 51.4533291,24.4366681 Z" id="Rounded-Rectangle-829-copy-6" fill="#E3EFF9" mask="url(#mask-14)"></path>
                            </g>
                        </g>
                        <path d="M153.929625,99.9661888 L138.701802,91.0671364 C137.019385,90.0827943 135.656237,90.9702012 135.656237,93.045814 C135.656237,95.1224261 137.019385,97.6017691 138.701802,98.5851119 L153.929625,107.486163 C155.612042,108.468506 156.97519,107.582099 156.97519,105.506486 C156.97519,103.429874 155.612042,100.949532 153.929625,99.9661888 Z" id="Rounded-Rectangle-829-copy" fill="#CFE3F3"></path>
                        <path d="M126.669669,168.149619 C120.902813,164.778872 116.227876,167.817841 116.227876,174.937083 C116.227876,182.055326 120.902813,190.558643 126.669669,193.92939 C132.437526,197.300137 137.112463,194.262167 137.112463,187.142925 C137.112463,180.024683 132.437526,171.521366 126.669669,168.149619 Z" id="Ellipse-830" fill="#F16157"></path>
                        <path d="M82.7256637,142.465785 C76.9588074,139.096037 72.2828698,142.134007 72.2828698,149.253248 C72.2828698,156.37249 76.9588074,164.875807 82.7256637,168.246555 C88.4915192,171.616302 93.1674568,168.578333 93.1674568,161.459091 C93.1674568,154.340848 88.4915192,145.836532 82.7256637,142.465785 Z" id="Ellipse-830-copy" fill="#FF6F61"></path>
                        <path d="M39.6503898,117.29161 C33.8835335,113.919863 29.2075959,116.958832 29.2075959,124.079073 C29.2075959,131.197316 33.8835335,139.700633 39.6503898,143.07138 C45.4182469,146.442127 50.0921829,143.403158 50.0921829,136.284916 C50.0921829,129.164674 45.4182469,120.662357 39.6503898,117.29161 Z" id="Ellipse-830-copy-2" fill="#FB917C"></path>
                    </g>
                </g>
                <polyline id="Shape-1509" stroke-opacity="0.501961" stroke="#C9DBED" stroke-width="0.5" points="354.778761 242.964602 477.33154 313.584071 504.424779 297.302581 504.424779 245.87656"></polyline>
                <g id="she" transform="translate(114.336283, 117.699115)">
                    <g id="sh" transform="translate(6.026893, 186.089377)" fill="#030F63">
                        <path d="M3.4674727,17.023176 C3.58198368,21.3312451 2.92605678,24.0115325 5.32074244,24.4357362 C6.33426503,24.6148222 7.71241466,25.3291653 8.33720262,24.6118208 C9.18900356,23.6333508 10.4636915,20.3927944 10.4636915,20.3927944 C10.4636915,20.3927944 11.1206229,23.9755152 11.0211792,26.7608529 C10.8725158,30.995887 8.99112056,34.7046682 7.6310516,34.4745577 C7.6310516,34.4745577 5.03145156,35.9182511 2.83565337,31.0329047 C0.560501092,25.9694728 0.363622572,24.5047694 0.973343294,19.8155172 C1.56196989,15.2873423 2.71210206,8.1038922 2.71210206,8.1038922" id="Shape-1268"></path>
                        <path d="M22.5315412,9.69265527 C20.4924422,8.23695611 21.1654454,-0.114054779 23.1774233,0.844405558 C23.1774233,0.844405558 21.0549523,6.53914067 31.8651902,13.6645629 C34.8896862,15.6595211 35.7203931,14.6790502 37.2020044,13.2203496 C37.8288013,12.6020526 39.3335157,12.1858527 39.1496954,11.4064784 C38.8985749,10.3449686 37.6610528,11.7906629 37.6610528,11.7906629 C37.6610528,11.7906629 39.0763682,11.0152905 40.9467142,12.4249676 C43.7893989,14.5669964 46.7877784,19.7034633 45.9540582,20.5378641 C45.9540582,20.5378641 45.6567314,23.0380649 41.2008482,22.2106675 C36.5832433,21.3522552 35.4763039,20.7849828 32.5492426,18.103695 C29.7226296,15.5144514 26.9462407,12.9712299 26.9462407,12.9712299" id="Shape-1268-copy"></path>
                    </g>
                    <g id="girl" transform="translate(0.000000, 33.856565)">
                        <path d="M28.9501827,115.216033 C28.9501827,115.216033 25.9497943,126.034229 27.9587588,132.923537 C29.9687277,139.811846 30.3805655,149.726608 29.2816619,152.702037 C28.3394575,155.250261 28.4891254,158.123641 31.59398,161.247141 C35.0052017,164.677789 40.4324193,170.041365 43.4177405,169.548128 C46.4030617,169.05389 46.9625583,165.028957 46.1388829,164.038482 C45.3162119,163.049006 37.3747753,159.969527 36.3481945,154.210761 C34.9931479,146.62912 38.9658752,125.955191 39.8558465,121.774183 C40.7468222,117.593174 42.3861372,111.904442 42.1691691,109.968512 C41.9532054,108.034584 34.2387817,108.329725 34.2387817,108.329725 L28.9501827,115.216033 Z" id="Shape-1266" fill="#EDC5B3"></path>
                        <g id="Clipped" transform="translate(27.121021, 108.211669)">
                            <mask id="mask-16" fill="white">
                                <use xlink:href="#path-15"></use>
                            </mask>
                            <g id="Shape-12661"></g>
                            <path d="M4.80343409,7.33152124 C4.80343409,7.33152124 1.80304563,18.1507176 3.8130146,25.0400264 C5.82197908,31.9273343 6.95403057,39.4839637 5.13491323,42.0922164 C3.31579589,44.6994686 4.84964027,47.3667497 6.75815653,51.3196482 C8.66566831,55.2735472 16.2846661,62.1588542 19.2699874,61.6646168 C22.2563131,61.1713799 22.4059809,58.7212031 21.5843144,57.7297269 C20.760639,56.7382507 12.2617147,55.0244276 12.7348259,47.3387362 C13.2089415,39.6530449 14.8181221,18.0716796 15.7090978,13.8906715 C16.601078,9.70966344 18.2393886,4.02193169 18.0224204,2.0850014 C17.8064567,0.149071597 10.0920331,0.445213831 10.0920331,0.445213831 L4.80343409,7.33152124 Z" id="Shape-1266-copy-2" fill="#FFDBCD" mask="url(#mask-16)"></path>
                        </g>
                        <path d="M18.7064728,113.575245 C18.7064728,113.575245 12.2807999,118.184458 12.0969797,132.923537 C11.9131594,147.663617 12.4224319,151.91766 11.1577888,156.020631 C9.8941501,160.124602 8.60740834,158.192674 8.68475348,161.374202 C8.76008964,164.55673 6.95905298,176.588509 9.49938858,177.586989 C12.0427376,178.586469 17.2067808,176.878649 16.828091,173.575062 C16.4494012,170.273476 15.3494932,167.321058 14.992902,164.023474 C14.4936743,159.400254 16.1339938,156.43583 16.9586737,154.132724 C17.7843581,151.830618 18.0867073,151.110272 21.6807447,141.77779 C25.2747822,132.444307 22.6591104,123.703109 23.6354672,120.461552 C24.6108194,117.222997 25.8674267,110.853938 24.6258867,108.98504 C23.3873601,107.117143 19.035943,113.248088 19.035943,113.248088" id="Shape-1262" fill="#EDC5B3"></path>
                        <path d="M43.8767889,69.6651552 C43.8767889,69.6651552 44.7597288,82.7614452 45.3373061,90.5471846 C45.9158878,98.3339244 44.8641949,106.854017 43.9772371,108.905002 C43.0912838,110.955987 37.0834755,140.107988 36.9920676,143.733729 C36.9016642,147.35847 36.3050017,150.06377 36.3050017,150.06377 C36.3050017,150.06377 35.9433881,151.913658 32.7903184,151.338382 C29.6372486,150.764106 29.2706126,150.715082 29.2706126,150.715082 C29.2706126,150.715082 29.2364602,145.168418 28.5423629,141.223524 C27.8492702,137.277629 26.0412022,126.277345 27.1622043,120.970797 C28.2832065,115.664248 31.677352,109.58933 31.3900701,108.300711 C31.1027882,107.012092 28.7121204,98.691096 27.7628847,96.2879418 C26.813649,93.8847876 24.1879324,74.1453069 24.1879324,74.1453069 L36.8413952,69.6831638 L43.8767889,69.6651552 Z" id="Shape-1511" fill="#030F63"></path>
                        <g id="Clipped" transform="translate(24.107574, 69.192928)">
                            <mask id="mask-18" fill="white">
                                <use xlink:href="#path-17"></use>
                            </mask>
                            <g id="Shape-15111"></g>
                            <path d="M29.1862361,-3.94189324 C29.1862361,-3.94189324 28.3846592,11.3084313 27.9497184,20.3807887 C27.5157821,29.4521455 25.7127365,39.2488508 24.7805769,41.5599608 C23.8474129,43.8700703 15.782425,77.2090826 15.2962556,81.4050979 C14.8100862,85.6011132 14.030608,88.692598 14.030608,88.692598 C14.030608,88.692598 13.5343937,90.8086143 11.116605,89.9011785 C8.69881623,88.9937426 8.41555224,88.9087018 8.41555224,88.9087018 C8.41555224,88.9087018 9.02225951,82.4756121 8.9268337,77.8483897 C8.83140788,73.2211673 8.66466383,60.3289753 10.154311,54.2620614 C11.6449626,48.196148 15.0129916,41.4118896 14.9336375,39.8961617 C14.8552879,38.3794332 13.9231284,28.5497121 13.4500172,25.6913392 C12.9769061,22.8329664 13.1647443,-0.253121571 13.1647443,-0.253121571 L23.6424986,-4.45914167 L29.1862361,-3.94189324 Z" id="Shape-1511-copy" fill="#2B3FA5" mask="url(#mask-18)"></path>
                        </g>
                        <path d="M8.45070911,72.5825564 C8.45070911,72.5825564 6.74610275,76.6515106 9.15585565,87.2035787 C11.5656086,97.7556467 13.2189863,115.209029 12.6805838,118.534627 C12.1411769,121.860224 10.9488565,128.480403 10.5651442,135.243652 C10.1824365,142.0069 10.3451626,152.243817 9.8599977,155.434349 C9.37583726,158.625882 11.0201747,157.962563 11.9754373,158.219687 C12.9306999,158.47681 15.0561843,159.032077 16.205312,156.827018 C17.3554442,154.621959 22.4320975,140.129999 23.959915,135.939986 C25.4887369,131.749974 26.1416504,125.343897 26.0753546,121.318964 C26.0090587,117.294031 27.6172348,107.469312 28.8949362,99.0392632 C30.1736421,90.6102148 33.2574026,83.7829358 33.1258154,79.5449003 C32.9932238,75.3068648 34.1292932,56.9380425 34.1292932,56.9380425 L8.45070911,72.5825564 Z" id="Shape-1510" fill="#030F63"></path>
                        <g id="Clipped" transform="translate(7.031376, 56.186682)">
                            <mask id="mask-20" fill="white">
                                <use xlink:href="#path-19"></use>
                            </mask>
                            <g id="Shape-15101"></g>
                            <path d="M8.69881623,15.7645715 C8.69881623,15.7645715 6.7712148,19.7344782 8.59234111,30.4016015 C10.4144719,41.0687248 11.0995288,58.5861382 10.3773061,61.8777191 C9.65508332,65.1682996 8.09713136,71.7144436 7.34075623,78.446677 C6.58337662,85.1789104 6.17957476,95.4088237 5.51862545,98.5683412 C4.85767613,101.727859 6.53616596,101.155584 7.47636134,101.464732 C8.41555224,101.773881 10.5068843,102.444203 11.7765498,100.305175 C13.0472199,98.166148 18.9184186,83.9733314 20.6762625,79.8723618 C22.4341064,75.7713921 23.4416021,69.4113374 23.5983013,65.3884053 C23.7550006,61.3664736 25.9045926,51.6438039 27.6473693,43.2967949 C29.390146,34.949786 32.8475738,28.3005924 32.9510355,24.062557 C33.0534927,19.823521 35.2050937,1.54374144 35.2050937,1.54374144 L8.69881623,15.7645715 Z" id="Shape-1510-copy" fill="#2B3FA5" mask="url(#mask-20)"></path>
                        </g>
                        <path d="M63.3105068,50.1948038 C67.4941754,50.5589787 70.1239099,51.0492142 74.1980899,54.8880579 C76.1658706,57.1871621 76.7595196,59.9624951 76.7595196,59.9624951 L76.7816182,60.3957032 C76.7816182,60.3957032 76.0031445,62.0304883 73.8746466,60.9519703 C71.7451442,59.8724518 74.7686358,61.9784633 73.7842432,61.8774148 C72.7988461,61.7753658 65.7745018,58.4187537 64.802163,57.1581482 C62.8223285,57.0360896 56.4629514,46.9982685 56.4629514,46.9982685" id="Shape-890-copy-2" fill="#FFDBCD"></path>
                        <g id="Clipped" transform="translate(56.251006, 46.181876)">
                            <mask id="mask-22" fill="white">
                                <use xlink:href="#path-21"></use>
                            </mask>
                            <g id="Shape-890-copy-21"></g>
                            <path d="M16.6362349,5.80378749 C16.6362349,5.80378749 15.6448109,6.69821707 13.8779267,6.4861152 C12.1120469,6.27301285 10.4094495,6.84728867 11.8096977,7.16744244 C13.2109505,7.48659572 14.0296035,7.89078985 15.2570808,7.84876967 C16.4855626,7.80574901 18.0143846,7.16744244 18.0143846,7.16744244 L16.6362349,5.80378749 Z" id="Shape-1504" fill="#EDC5B3" mask="url(#mask-22)"></path>
                        </g>
                        <path d="M66.6825537,51.3043367 C66.6825537,51.3043367 72.1348833,50.3928989 73.5763154,50.6230095 C75.0177474,50.85312 77.1512677,51.1962848 74.9554695,51.9856639 C72.7596713,52.7760435 69.4398575,53.3493189 69.4398575,53.3493189 L66.6825537,51.3043367 Z" id="Shape-1503" fill="#EDC5B3"></path>
                        <polygon id="Shape-1256" fill="#EDC5B3" points="41.2570992 30.4283102 64.9950236 50.5109556 60.9700632 53.189242 40.2656752 39.936877"></polygon>
                        <g id="Clipped" transform="translate(40.179290, 30.174188)">
                            <mask id="mask-24" fill="white">
                                <use xlink:href="#path-23"></use>
                            </mask>
                            <g id="Shape-12561"></g>
                            <g id="Group" mask="url(#mask-24)">
                                <g transform="translate(-24.107574, -27.172747)">
                                    <path d="M26.1768073,25.4599239 L49.9127227,48.2668778 L45.2870819,48.8201436 C45.2870819,48.8201436 30.715058,41.0243994 28.4901299,38.9033807 C26.6147615,37.1185234 25.1853833,34.9694913 25.1853833,34.9694913 L26.1768073,25.4599239 Z" id="Shape-1256-copy" fill="#FFDBCD"></path>
                                    <path d="M19.1896288,0.106747087 C19.1896288,0.106747087 14.2375313,0.709036359 16.8150328,10.868916 C19.3895207,21.0277952 -0.777469256,20.2554243 0.699119641,25.55597 C2.17570854,30.8565158 3.37506034,31.591869 3.37506034,31.591869 C3.37506034,31.591869 4.46391909,30.8765254 4.95611539,31.1526581 C8.64557867,33.2136479 22.797729,38.1350116 27.3731456,38.0189559 C28.7703804,35.1025552 32.5432157,29.6419325 34.6958212,28.8125341 C36.8474221,27.9841363 22.9564372,21.4099788 21.3432387,21.8341825 C19.7290357,22.2583863 33.68933,-1.74414187 19.1896288,0.106747087 Z" id="Shape-1218-copy-2" fill="#ADC7DF"></path>
                                    <path d="M29.9084588,30.923548 C29.9084588,30.923548 29.8260913,32.7964476 29.1530882,33.6648647 C28.480085,34.5342822 27.4886611,34.7173702 27.1370923,34.4132241 C26.786528,34.1080775 25.626351,33.6648647 25.626351,33.6648647 C25.626351,33.6648647 25.2818136,38.1350116 25.374226,38.1510193 C25.4666383,38.1680275 27.3892173,39.397618 27.3892173,39.397618 C27.3892173,39.397618 28.6498425,39.014434 29.1530882,38.1510193 C29.6563338,37.2876046 31.3187519,34.6163216 31.4202046,34.1641044 C31.5216573,33.7108868 32.2689921,32.8024504 31.9244547,32.4192664 C31.5789128,32.0360824 29.9084588,30.923548 29.9084588,30.923548 Z" id="Shape-1449" fill="#2552C3"></path>
                                </g>
                            </g>
                        </g>
                        <path d="M16.6764142,2.77102671 C16.6764142,2.77102671 27.9306333,-2.26339126 30.6035605,3.72248368 C30.8998828,4.38480179 30.5684036,2.75301806 31.3679715,2.77102671 C41.4188208,2.99913627 41.1938168,13.9864133 41.1938168,13.9864133 L40.1792897,65.1910063 C40.1792897,65.1910063 41.5976187,68.7777289 39.5253718,69.6351408 C37.6419676,70.4145151 35.5596759,69.9632984 35.5596759,69.9632984 L12.2215355,5.51234333 L16.6764142,2.77102671 Z" id="Shape-1219" fill="#FF6F61"></path>
                        <g id="Clipped" transform="translate(12.053787, 0.159773)">
                            <mask id="mask-26" fill="white">
                                <use xlink:href="#path-25"></use>
                            </mask>
                            <g id="Shape-12191"></g>
                            <g id="Group" mask="url(#mask-26)">
                                <g transform="translate(3.854155, -1.000481)">
                                    <path d="M1.82518791,2.39615084 C1.82518791,2.39615084 -2.95514309,5.55866976 3.20434203,10.5740786 C5.26955752,12.2558864 8.71995403,13.8626581 12.1663326,13.2993875 C15.6137157,12.7371175 16.7055879,11.1143381 16.9928698,10.5740786 C17.2801517,10.0328186 16.303795,3.75880531 16.303795,3.75880531 L10.788183,3.07747808" id="Shape-1503-copy" fill="#FFDBCD"></path>
                                    <path d="M16.7196506,0.300144156 L14.3269739,3.20153766 C14.3269739,3.20153766 18.3579612,10.3279604 18.9877715,11.2664111 C19.6175819,12.2048619 21.2920538,19.2422418 23.2698793,18.2447627 C25.2487093,17.2472837 32.2137892,15.4984437 31.8361039,13.0112491 C31.4574141,10.5240546 27.4033238,5.22851119 26.2933709,4.2880595 C25.183418,3.34760782 22.3588139,2.40415469 21.2548879,2.29410183 C20.150962,2.18304849 16.7196506,0.300144156 16.7196506,0.300144156 Z" id="Shape-1450" fill="#D1DFEF"></path>
                                </g>
                            </g>
                        </g>
                        <path d="M3.90743593,10.7468574 C3.90743593,10.7468574 8.51499598,6.6849065 17.5784393,2.16073359 C18.6803563,2.95011272 11.9111504,5.72544568 15.9491691,9.29616065 C24.1768831,16.5776579 43.4227629,35.3896931 36.882579,72.009281 C32.8204528,73.2218634 24.1949638,79.0186475 20.027367,79.8010233 C15.8617791,80.5823986 6.26897368,78.2892972 6.80938513,70.9477712 C7.34879209,63.6022432 10.2276382,57.5773495 14.4103023,51.598478 C18.5929663,45.6196064 11.766505,35.2026032 11.766505,35.2026032 L3.90743593,10.7468574 Z" id="Shape-1216" fill="#FFFFFF"></path>
                        <g id="Clipped" transform="translate(3.854155, 2.160734)">
                            <mask id="mask-28" fill="white">
                                <use xlink:href="#path-27"></use>
                            </mask>
                            <g id="Shape-12161"></g>
                            <g id="Group" mask="url(#mask-28)">
                                <g transform="translate(0.163774, -0.159773)">
                                    <path d="M1.80003218,6.96804249 C1.9858614,6.90000981 7.42412826,17.1599375 9.40094932,16.1494522 C9.77662568,15.9563595 10.2828847,12.6957935 9.07047466,10.2476176 C8.2196782,8.53079306 6.57835421,6.48280943 5.4362579,6.31272775 C5.176097,4.15869319 8.53809907,3.77650963 8.74,3.36131022 C10.3090013,0.116751892 9.06746121,0.0867374765 8.74,0.0817350739 C8.41153431,0.0777331518 1.16419492,4.25273836 1.13908286,4.67294018 C1.11397081,5.09114103 1.51877715,7.07409342 1.80003218,6.96804249 Z" id="Shape-1248" fill="#C9DBED"></path>
                                    <path d="M9.40094932,78.1272194 C9.40094932,78.1272194 11.9794552,67.8292734 15.3494932,61.7303442 C18.7195311,55.6334159 19.206705,48.179836 18.9887323,44.0268414 C18.7707597,39.8738468 17.5623675,36.2981294 22.6189312,35.497745 C27.6754948,34.6963601 26.9271555,34.1100785 28.2118883,32.9405168 C29.4946121,31.7719555 26.2280359,29.6609416 26.2280359,29.6609416 C26.2280359,29.6609416 25.4395173,32.210166 20.9675623,32.2181698 C16.4956074,32.2261737 12.4113826,30.4713308 12.3752212,26.6444929 C13.7553798,21.5890648 11.5364786,16.5976675 10.0618986,14.5106651 C8.5873187,12.4226623 4.1123503,11.5592476 4.1123503,11.5592476 C4.1123503,11.5592476 4.90990921,34.0580535 5.4362579,34.5122717 C5.96059763,34.9694913 5.4362579,54.5168796 5.4362579,54.5168796 L0.477129066,69.6011244 C0.477129066,69.6011244 1.06274221,78.224266 1.46955752,78.1272194 C1.87637283,78.0311733 9.40094932,78.1272194 9.40094932,78.1272194 Z" id="Shape-1232" fill="#E3EFF9"></path>
                                </g>
                            </g>
                        </g>
                        <path d="M32.2559338,8.96900352 C32.2559338,8.96900352 35.8218458,15.1769851 36.882579,24.0532483 C37.590739,29.9890992 32.9731341,38.9023802 33.6360924,47.1343339 C34.8615607,62.3746536 36.8946328,72.0142834 36.8946328,72.0142834 L44.720554,70.5615857 C44.720554,70.5615857 45.9851971,60.9989929 45.143441,57.8294706 C44.3026893,54.6599483 42.5428365,50.9951882 42.1691691,47.3374314 C41.7955017,43.6766732 43.1987634,40.4421197 42.8301184,36.8433913 C42.4614734,33.2436624 41.5092242,28.972611 41.5092242,28.972611 C41.5092242,28.972611 44.3659717,29.5749003 45.2027054,23.1728255 C46.0414481,16.7787545 42.5810068,14.7267689 41.1948213,13.025952 C39.8136582,11.331138 30.1324583,3.73048753 29.6121365,0.115751412 C29.7748627,1.2462944 30.2590231,3.92958315 31.2635053,6.3457436 C31.8370647,7.72340528 32.2559338,8.96900352 32.2559338,8.96900352 Z" id="sds" fill="#FFFFFF"></path>
                        <g id="Clipped" transform="translate(29.129985, 0.000000)">
                            <mask id="mask-30" fill="white">
                                <use xlink:href="#path-29"></use>
                            </mask>
                            <g id="sds1"></g>
                            <path d="M7.48339271,28.3953338 C7.48339271,28.3953338 10.6665969,29.1977191 12.7087093,28.972611 C14.7518262,28.7475029 13.3706631,29.6269253 13.3706631,29.6269253 C13.3706631,29.6269253 9.34369383,31.851994 7.48339271,30.3632789 C5.6230916,28.872563 7.48339271,28.3953338 7.48339271,28.3953338 Z" id="Shape-1246" fill="#C9DBED" mask="url(#mask-30)"></path>
                        </g>
                        <g id="hand" transform="translate(0.000000, 8.163617)">
                            <g id="hand1">
                                <path d="M4.76928169,1.61177412 C4.76928169,1.61177412 -3.66736467,6.49411905 2.27314332,15.1072558 C8.21063786,23.7203926 11.7695184,26.1035372 14.992902,30.5526741 C18.2162855,35.0028114 19.6014665,35.280945 19.6014665,35.280945 C20.0243535,35.643119 20.0534835,35.9372602 22.5606712,35.9582703 C28.6990622,36.0112958 40.163218,34.7907096 44.4342765,33.1269105 C44.7426526,29.9283742 42.9456338,30.7157524 44.6864016,29.2100292 C46.4281738,27.7043061 24.5324698,26.6317909 23.1583381,27.577245 C21.7852109,28.5216986 17.792394,-5.04542326 4.76928169,1.61177412 Z" id="Shape-1218" fill="#C9DBED"></path>
                                <g id="Clipped">
                                    <mask id="mask-32" fill="white">
                                        <use xlink:href="#path-31"></use>
                                    </mask>
                                    <g id="Shape-12181"></g>
                                    <g id="Group" mask="url(#mask-32)">
                                        <g transform="translate(-1.004482, 0.000000)">
                                            <path d="M2.34144811,1.75984523 C2.34144811,1.75984523 -2.11644409,4.00492352 3.82305942,12.6170598 C9.76155844,21.2311971 13.3214435,23.6153422 16.544827,28.064479 C19.7672061,32.5126154 21.1503781,32.7917495 21.1503781,32.7917495 C21.1503781,32.7917495 41.4459418,33.5231007 46.3367659,31.608181 C46.6461464,28.4096448 45.3945615,26.7078275 47.1353293,25.2021043 C48.8771015,23.6943801 26.0823859,24.1425954 24.7092587,25.0880495 C23.3361315,26.0335036 15.3645604,-4.89835262 2.34144811,1.75984523 Z" id="Shape-1218-copy" fill="#EFF7FF"></path>
                                            <polygon id="Shape-1251" fill="#FFDBCD" points="19.5602827 36.0853314 24.7996621 26.2606127 47.3954902 25.0000072 47.1313113 34.7216764 25.1783519 38.3794332"></polygon>
                                        </g>
                                    </g>
                                </g>
                            </g>
                            <g id="Group-54" transform="translate(25.952764, 22.010571)">
                                <path d="M18.7386599,12.2929041 C23.1222204,12.6240632 27.6524354,11.7826591 30.5513711,9.51757118 C33.4513113,7.25448424 33.0384691,4.5962075 33.0384691,4.5962075 L39.5665992,1.97995095 C39.5665992,1.97995095 39.0482864,-0.133063909 36.2568302,0.650312337 C33.4663786,1.43568954 30.190762,2.39915228 28.9974371,2.29110039 C27.8061211,2.18504945 21.1001977,5.01040644 19.6356626,6.2760143 C17.2600621,5.96386437 0.053281232,13.7275932 0.053281232,13.7275932" id="Shape-890" fill="#EDC5B3"></path>
                                <g id="Clipped">
                                    <mask id="mask-34" fill="white">
                                        <use xlink:href="#path-33"></use>
                                    </mask>
                                    <g id="Shape-8901"></g>
                                    <path d="M15.7905045,11.297426 C20.3619032,11.7826591 23.2939869,11.8086716 28.5233215,8.56211228 C31.1480336,6.52013154 30.7733617,4.12097926 30.7733617,4.12097926 L36.6817262,1.76184619 C36.6817262,1.76184619 36.2116285,-0.145069675 33.6853557,0.561269571 C31.1590829,1.2686093 28.1938513,2.13602591 27.1150374,2.0389793 C26.0352189,1.94193269 19.9661372,4.48915609 18.6412251,5.63170484 C16.4896242,5.34856885 0.915126997,12.7101045 0.915126997,12.7101045" id="Shape-890-copy" fill="#FFDBCD" mask="url(#mask-34)"></path>
                                </g>
                            </g>
                            <path d="M22.9594506,27.8033536 C25.1803609,26.883912 20.9374279,30.2845453 22.2733893,32.3315285 C22.3798644,32.4976082 23.3130284,32.0924136 23.4647052,32.2424857 C25.370208,34.1033794 40.8723825,32.8567807 42.0184967,31.197984 C44.1660798,28.0904915 42.5177244,32.8827932 42.5177244,32.8827932 C42.5177244,32.8827932 25.315966,36.9217331 20.9424503,35.4240137 C16.5689346,33.9262944 21.724942,31.2460071 22.9594506,27.8033536 Z" id="Shape-1254" fill="#EDC5B3"></path>
                            <path d="M22.5365636,28.8628625 C22.5365636,28.8628625 20.9685668,30.8968394 19.5482289,31.9893641 C18.5708677,32.7417255 17.5734168,32.6836976 17.5734168,32.6836976 L19.206705,34.7356831 L22.5365636,28.8628625 Z" id="Shape-1253" fill="#C9DBED"></path>
                        </g>
                    </g>
                    <g id="head" transform="translate(6.026893, 0.000000)">
                        <path d="M10.0367866,40.0722462 C10.125181,39.9681963 10.2145799,39.8571429 10.3029744,39.7370853 C10.3029744,39.7210776 10.3110102,39.7130737 10.3270819,39.697066 C11.5867027,37.8261675 12.1281186,33.5020907 12.3631675,30.4326164 C12.4033467,29.7692978 12.1281186,29.1129826 12.0959752,28.6017371 C12.0889438,28.5457102 12.0889438,28.4906837 12.0889438,28.4346568 C12.1281186,27.5622378 11.8699667,27.1390346 11.8699667,27.1390346 L26.9412183,25.9164474 C25.5238938,31.2840253 23.8464085,37.1038205 24.1658338,39.4689565 C24.1899414,39.7180761 21.3392208,48.2531754 10.0367866,40.0722462" id="Layer-734" fill="#FFDBCD"></path>
                        <path d="M25.911624,33.4080455 C24.5304609,32.536627 22.1819814,32.1794554 22.1819814,32.1794554 L16.9657051,27.5492316 L10.0739524,25.2341196 C10.0739524,25.2341196 12.2818044,28.0984954 12.0959752,28.6017371 C12.1281186,29.1129826 12.4033467,29.7692978 12.3631675,30.4326164 C12.1281186,33.5020907 11.5877072,37.8271679 10.3270819,39.697066 C14.1561683,33.6521627 24.1346949,34.7526913 24.6871601,34.9177706 L25.911624,33.4080455 Z" id="Layer-735" fill="#EDC5B3"></path>
                        <path d="M30.210808,26.3746674 C30.2268797,26.9309346 30.0892656,27.8093565 29.894396,28.6617659 C29.1550971,32.0343857 28.4700402,33.8252459 27.3972532,34.9637927 C20.5748098,35.7091507 14.0918814,29.657244 13.3616228,26.7038255 C13.5795954,27.1300302 13.2712194,28.5467106 12.4324767,28.1145031 C10.7399241,27.2410836 8.69982071,23.0930913 8.69982071,23.0930913 L13.6388599,14.4249281 L19.1876198,13.4394548 L27.1913343,13.4624659 L30.1646018,14.9461785 C30.1646018,14.9461785 29.8080106,16.6539987 29.8311137,17.8855902 C29.8642616,19.1181822 29.7849075,20.3177584 29.7849075,22.1206243 C29.7849075,23.9234902 30.1545569,23.8604599 30.210808,26.3746674" id="Layer-736" fill="#FFDBCD"></path>
                        <path d="M8.15539133,5.04742422 C-0.0723227215,8.37502242 -1.97782554,31.2239965 4.77229514,35.6771353 C3.74571429,25.5562744 3.75776807,17.6974999 11.4259855,9.3674991 C16.1962717,4.18601049 9.68823124,6.98835642 8.15539133,5.04742422" id="Layer-707" fill="#314157"></path>
                        <path d="M5.8209746,10.0138095 C3.69147224,9.59760962 2.07927824,7.68569135 2.07927824,5.38358567 C2.07927824,4.22502923 2.489107,3.16051796 3.16914148,2.33412105 C4.01893346,1.31263044 5.28458108,0.660317143 6.6978876,0.660317143 C8.10315826,0.660317143 9.36981037,1.30562708 10.2185979,2.32611721 C10.8996368,3.15251412 11.3094656,4.21802587 11.3094656,5.38358567 L11.2863625,5.84680815 C13.2893001,6.39207004 16.548845,4.5141681 12.4857143,8.92728767 C4.81850132,17.256288 7.03238019,23.1161024 8.05996552,33.2369633 C2.89692679,29.8303272 2.18776233,17.2372789 5.8209746,10.0138095 Z" id="Layer-712" fill="#314157"></path>
                        <path d="M10.2185979,2.32711769 L10.2185979,2.36313499 C10.2185979,4.3550917 8.63754281,5.97086774 6.6978876,5.97086774 C4.75120101,5.97086774 3.17014596,4.3550917 3.17014596,2.36313499 L3.17014596,2.33412105 C4.01893346,1.31263044 5.28558556,0.660317143 6.6978876,0.660317143 C8.10315826,0.660317143 9.36981037,1.30562708 10.2185979,2.32711769" id="Layer-713" fill="#202C3B"></path>
                        <path d="M30.800439,17.5314201 C29.1350075,15.8826282 21.6315251,24.3827107 15.7372233,21.3562572 C15.2922377,21.4202879 14.8261579,21.4843187 14.340993,21.5413461 C14.0336214,22.7119083 13.8437743,23.7604118 13.5816044,23.7343994 C13.491201,22.907002 13.2973359,22.1976613 13.0432019,21.6303888 C12.4133916,20.2377199 11.4089093,19.7004619 10.6153683,20.4178064 C10.4225078,20.5908896 10.2627951,20.8350068 10.1412527,21.1421543 C9.60686818,22.5048088 9.89515458,25.0550336 11.8749891,27.4842003 C11.962379,27.5862493 12.0457511,27.6902993 12.1411769,27.8033536 C12.2315803,27.9044022 12.3340375,28.0094526 12.4324767,28.1145031 C12.6835973,30.6237082 6.80637168,24.0375449 5.60501092,18.1577209 C4.89484197,14.6740478 5.95356626,10.5670752 7.67223538,8.24696092 C7.76263878,8.12590277 7.85304218,8.00984703 7.94846799,7.89779322 C8.27894265,7.51060726 8.62448454,7.18845253 8.98408919,6.93933288 C17.6718561,0.997479077 33.0655465,9.67664758 30.800439,17.5314201" id="Layer-737" fill="#202C3B"></path>
                    </g>
                </g>
                <g id="cadr" transform="translate(433.805310, 176.548673)">
                    <path d="M5.96316352,0.308017221 C7.31724432,-0.246850036 9.17610081,0.0110882564 11.2272528,1.21380053 L107.24981,57.5423248 C111.393177,59.9727434 114.751337,65.3394595 114.751337,69.5294571 L114.751337,140.027591 C114.751337,142.120091 113.913049,143.523755 112.557967,144.101617 L109.668526,146.024157 L109.372071,144.149605 C108.699037,143.955652 107.986942,143.645726 107.24981,143.212829 L11.2272528,86.885305 C7.08388573,84.4548864 3.72472374,79.0871705 3.72472374,74.8971729 L3.72472374,4.40003827 C3.72472374,3.81817747 3.78982378,3.29030376 3.91301308,2.81841665 L1.8027703,3.15833533 L5.08781839,0.838890218 C5.23504463,0.712920354 5.3932878,0.601946903 5.56154636,0.503970342 L5.90908042,0.25902894 L5.96316352,0.308017221 Z" id="Shape-1519" fill="#D1E3F5"></path>
                    <path d="M8.22564025,3.20532409 L104.249199,59.5338484 C108.391564,61.9642669 111.750726,67.330983 111.750726,71.5209806 L111.750726,142.019115 C111.750726,146.209113 108.391564,147.634772 104.249199,145.204353 L8.22564025,88.8758287 C4.08227318,86.4454102 0.724112736,81.0786941 0.724112736,76.8886965 L0.724112736,6.39156183 C0.724112736,2.20156422 4.08227318,0.774905525 8.22564025,3.20532409 Z" id="Rounded-Rectangle-1-copy-3" fill="#FFFFFF"></path>
                    <g id="shop" transform="translate(27.041554, 43.989476)" fill="#C9DBED">
                        <path d="M36.1084875,47.8026549 C34.2656556,46.7918967 32.7713594,47.4577374 32.7713594,49.2892992 C32.7713594,51.120861 34.2656556,53.4263095 36.1084875,54.4370677 C37.9523209,55.4478259 39.4466172,54.7819852 39.4466172,52.9494236 C39.4466172,51.1178618 37.9523209,48.8134131 36.1084875,47.8026549 L36.1084875,47.8026549 Z M36.1084875,48.9663765 C37.3033236,49.6212198 38.275818,51.1198613 38.275818,52.3075771 C38.275818,53.4942932 37.3033236,53.9281894 36.1084875,53.2723463 C34.9146529,52.617503 33.9421585,51.1188615 33.9421585,49.9311457 C33.9421585,48.7444296 34.9146529,48.3115331 36.1084875,48.9663765 Z M20.6517353,39.3256829 C18.8079019,38.3149247 17.3136056,38.9807654 17.3136056,40.8123272 C17.3136056,42.6448888 18.8079019,44.9493375 20.6517353,45.9600957 C22.4945671,46.9708539 23.9888634,46.3050132 23.9888634,44.4734513 C23.9888634,42.6408897 22.4945671,40.336441 20.6517353,39.3256829 L20.6517353,39.3256829 Z M39.1531662,45.6891605 L16.669616,33.36011 C16.4102174,33.2171442 16.1818665,32.9222148 16.1087541,32.6352834 L9.77301808,7.86420952 L0.534821855,1.34276967 C0.215330896,1.11782349 -0.00200307811,0.699923463 0.0480738746,0.409992825 C0.0991523663,0.120062186 0.399614082,0.0690743841 0.718103501,0.294020569 L10.3208599,7.07239895 C10.5442032,7.23036116 10.7264833,7.48929921 10.7905818,7.74023918 L17.1072886,32.4353313 L38.7194998,44.2874958 L42.9259638,32.8072423 C43.0201085,32.5513035 43.3466102,32.5573021 43.6560858,32.8202392 C43.9655614,33.0831763 44.1408307,33.5040756 44.046686,33.7600144 L39.7140281,45.5831858 C39.6389127,45.7881368 39.4115633,45.8311265 39.1531662,45.6891605 Z M20.6517353,40.4894044 C21.8455698,41.1442478 22.8180643,42.643889 22.8180643,43.8306051 C22.8180643,45.018321 21.8455698,45.4512174 20.6517353,44.7963741 C19.4568992,44.1415307 18.4854063,42.6418895 18.4854063,41.4551734 C18.4854063,40.2674575 19.4568992,39.8345611 20.6517353,40.4894044 Z" id="Shape-1498"></path>
                    </g>
                    <path d="M82.0711177,101.819732 C77.6933905,99.241349 74.1449377,101.565793 74.1449377,107.01149 C74.1449377,112.458187 77.6933905,118.962631 82.0711177,121.541014 C86.4488449,124.119397 89.9972978,121.794953 89.9972978,116.349256 C89.9972978,110.903559 86.4488449,104.399115 82.0711177,101.819732 Z" id="Ellipse-830-copy-3" fill="#FF6F61"></path>
                    <path d="M93.8642401,108.403157 C89.4865129,105.824774 85.93806,108.150218 85.93806,113.595915 C85.93806,119.041612 89.4865129,125.546056 93.8642401,128.125439 C98.2419673,130.703822 101.79042,128.379378 101.79042,122.932681 C101.79042,117.486984 98.2419673,110.98254 93.8642401,108.403157 Z" id="Ellipse-830-copy-4" fill="#0D67F1"></path>
                </g>
                <g id="cta-on" transform="translate(299.292035, 205.132743)">
                    <path d="M5.98669567,0.38297903 C7.13376331,0.200033667 8.47832608,0.498576376 9.91465427,1.34595518 L51.070444,25.6344652 C55.2856682,28.1213159 58.7039298,34.3977491 58.7039298,39.652905 C58.7039298,43.0424202 57.2815659,45.1784581 55.1400405,45.5996345 L53.2638368,46.0378992 L53.5690565,45.6147124 C52.7860582,45.4910735 51.9452077,45.1794633 51.070444,44.6627934 L9.91465427,20.3762938 C5.69843258,17.8864275 2.28017099,11.6109994 2.28017099,6.35584359 C2.28017099,4.0067045 2.96342433,2.2586716 4.09752512,1.26654482 L3.49107545,0.975038476 L5.440093,0.511643902 C5.61065697,0.458368603 5.78620819,0.416150442 5.96674666,0.385994613 L5.98470076,0.381973836 L5.98669567,0.38297903 Z" id="Shape-1517" fill="#0597DB"></path>
                    <path d="M49.1234213,26.093839 L7.96663417,1.80633417 C3.75041248,-0.681521739 0.332150892,1.56207195 0.332150892,6.81622259 C0.332150892,12.0703732 3.75041248,18.3468065 7.96663417,20.8366728 L49.1234213,45.1231724 C53.339643,47.6100231 56.7569072,45.3684398 56.7569072,40.113284 C56.7569072,34.8581281 53.339643,28.5816949 49.1234213,26.093839 Z" id="Rounded-Rectangle-829-copy-5" fill="#00BFF7"></path>
                </g>
                <g id="he" transform="translate(198.407080, 201.769912)">
                    <path d="M36.4926995,76.9839436 C33.3263199,74.740672 30.8894151,71.5509735 27.7070689,69.0720935 C24.5237247,66.5932135 22.720495,66.978573 22.720495,66.978573 C22.720495,66.978573 23.6455608,68.4880642 23.2932974,63.5722345 C22.940036,58.6564049 21.6996295,37.9528153 21.6996295,37.9528153 C21.6996295,37.9528153 15.0864566,28.7501106 8.01324556,34.125177 C0.939036621,39.499245 2.84305562,63.772901 5.85875027,68.4301604 C8.87344701,73.0874198 15.520549,74.9393418 17.585232,76.6255393 C19.650913,78.3117367 32.1976797,83.759682 36.302098,85.6365625" id="Shape-1508-copy" fill="#AB7D5B"></path>
                    <path d="M23.1865206,43.1821239 C23.1865206,43.1821239 22.8382488,37.3617976 19.9562746,34.6862445 C17.0752982,32.0106914 9.08400676,31.3088579 5.9715145,35.5348341 C2.85902223,39.7618086 1.99183538,51.3016289 1.30028132,53.4750166 C0.608727247,55.647406 0.810305777,57.815802 0.810305777,57.815802 C0.810305777,57.815802 5.44361825,57.9395962 10.1966803,58.6494165 C14.9497424,59.3582384 17.4315533,60.6311228 18.9054716,59.6257937 C20.378392,58.6214629 20.6059163,54.3216095 20.6059163,54.3216095 L23.1865206,43.1821239 Z" id="Shape-1512-copy" fill="#CFE3F3"></path>
                    <g id="guy" transform="translate(3.991654, 31.106195)">
                        <path d="M11.0379214,156.190404 L10.7106058,168.32823 L20.7665803,167.861007 C20.7665803,167.861007 19.0032671,158.027351 18.4144982,158.521529 C17.8247313,159.019701 11.0379214,156.190404 11.0379214,156.190404 Z" id="Shape-1279-copy" fill="#AB7D5B"></path>
                        <path d="M25.8719059,183.461079 L45.0867307,184.118985 C45.0867307,184.118985 36.175363,178.781856 36.4677516,169.442378 C36.428833,170.59646 28.6969991,168.157514 28.5223642,170.956861 C28.0024513,179.287016 25.8719059,183.461079 25.8719059,183.461079 Z" id="Shape-1279" fill="#AB7D5B"></path>
                        <g id="sh1" transform="translate(8.981222, 156.739491)">
                            <path d="M0.93304914,9.09987555 C0.93304914,9.09987555 -0.486981797,14.9451604 0.93304914,17.9791178 C5.59330527,20.2363662 8.48226491,19.5944331 10.1278243,17.9791178 C11.77039,16.3628042 13.2802331,13.1870824 18.0083474,11.6336643 C22.731472,10.0862362 23.2573725,6.56209347 23.2573725,6.56209347 L23.2573725,1.48952434 L14.066589,2.76041206 C14.066589,2.76041206 9.85938557,12.8007246 0.93304914,9.09987555 Z" id="Shape-1288-copy" fill="#BDD5E9"></path>
                            <path d="M0.93304914,7.78306416 C0.93304914,7.78306416 -0.486981797,13.6293473 0.93304914,16.6623064 C5.59330527,18.9195548 8.48226491,18.27862 10.1278243,16.6623064 C11.77039,15.0459928 13.2802331,11.870271 18.0083474,10.3178512 C22.731472,8.77042312 23.2573725,5.24628042 23.2573725,5.24628042 L23.2573725,0.173711283 L10.2785092,3.69386062 C10.2785092,3.69386062 9.85938557,11.4839132 0.93304914,7.78306416 Z" id="Shape-1288" fill="#FFFFFF"></path>
                        </g>
                        <g id="sh2" transform="translate(24.947838, 176.706305)">
                            <path d="M2.1405245,4.40567754 C2.1405245,4.40567754 -1.66551766,9.95545354 1.15957551,12.769776 C3.97768329,15.5831001 7.63603425,14.0686173 10.0010893,13.9657882 C12.3671422,13.8609624 18.4384481,14.0286836 22.7793719,12.769776 C27.117302,11.512865 35.1664724,9.35445243 32.6048284,5.60168971 C30.048174,5.60168971 26.620341,4.37373064 23.7613188,4.40567754 C20.9022966,4.44261615 13.9358623,0.81764104 13.9358623,0.81764104 C13.9358623,0.81764104 15.2181812,6.85560564 9.01914238,6.7957052 C2.82409526,6.73780144 2.1405245,4.40567754 2.1405245,4.40567754 Z" id="Shape-1278" fill="#BDD5E9"></path>
                            <path d="M2.1405245,3.07089602 C2.1405245,3.07089602 -1.66551766,8.62067201 1.15957551,11.4359928 C3.97768329,14.2493169 7.63603425,12.7338357 10.0010893,12.632005 C12.3671422,12.5261809 18.4384481,12.6939021 22.7793719,11.4359928 C27.117302,10.1790819 35.1664724,8.01967091 32.6048284,4.26690819 C30.048174,4.26690819 26.620341,3.03994746 23.7613188,3.07089602 C20.9022966,3.10883296 13.5716239,0.299502212 13.5716239,0.299502212 C13.5716239,0.299502212 15.2181812,5.52082412 9.01914238,5.46192201 C2.82409526,5.40401825 2.1405245,3.07089602 2.1405245,3.07089602 Z" id="Shape-1278-copy" fill="#EFF7FF"></path>
                            <g id="Clipped">
                                <mask id="mask-36" fill="white">
                                    <use xlink:href="#path-35"></use>
                                </mask>
                                <g id="Shape-1278-copy1"></g>
                                <path d="M21.9620807,2.08753042 L21.9221642,2.07355365 L21.947112,2.08154038 L21.9620807,2.08753042 L22.8392467,2.37704923 C23.7084294,2.66956305 24.6275077,3.94743916 24.9149068,5.25426715 C25.2092913,6.5650885 24.7692115,7.46958518 23.9080121,7.26392699 C23.0178732,7.05227876 22.1037844,6.83064712 23.0288503,7.0532771 C23.920985,7.26792035 24.3750356,6.34745022 24.0776574,5.01067201 C23.7912562,3.69386062 22.8582071,2.39501936 21.9620807,2.08753042 Z M19.2417685,1.24892423 L19.2058436,1.23694414 L19.2277977,1.24393252 L19.2417685,1.24892423 L20.1259199,1.54143805 C20.9881171,1.8319552 21.9091913,3.11082965 22.20158,4.41865597 C22.489977,5.72748064 22.0528909,6.63297566 21.1946852,6.42831582 C20.3035485,6.21566925 19.3864659,5.99303927 20.3105339,6.21566925 C21.1986769,6.42931416 21.658715,5.51084071 21.3633326,4.17506084 C21.0739377,2.85625277 20.1418865,1.55641316 19.2417685,1.24892423 Z M16.5264458,0.412314712 L16.4925167,0.401332965 L16.512475,0.407323009 L16.5264458,0.412314712 L17.4095993,0.70482854 C18.2757882,0.996344027 19.1958645,2.27422013 19.4832635,3.58104812 C19.7756522,4.89186947 19.3355723,5.79636615 18.4783646,5.59170631 C17.5892237,5.38005808 16.6711432,5.1574281 17.597207,5.38005808 C18.48535,5.59370299 18.9453882,4.67522954 18.6510037,3.33944967 C18.3596129,2.01964325 17.4255659,0.71980365 16.5264458,0.412314712 Z" id="Ellipse-3-copy-9" fill="#040D81" mask="url(#mask-36)"></path>
                            </g>
                        </g>
                        <path d="M3.98666451,74.6229729 C3.98666451,74.6229729 11.3303101,108.797174 10.2765134,111.986872 C4.91971365,128.352671 9.56001151,159.859306 9.56001151,159.859306 C9.56001151,159.859306 12.8471386,165.531878 19.4213929,159.859306 C21.4581344,158.092243 21.00109,131.329723 22.628687,122.184923 C23.9559119,114.721327 27.0065336,91.1874419 27.0065336,91.1874419 L25.004719,79.3011975 C25.004719,79.3011975 8.08210159,44.4271598 3.98666451,74.6229729 Z" id="Shape-1252" fill="#2B3FA5"></path>
                        <g id="Clipped" transform="translate(3.834449, 61.897124)">
                            <mask id="mask-38" fill="white">
                                <use xlink:href="#path-37"></use>
                            </mask>
                            <g id="Shape-12521"></g>
                            <path d="M0.579322973,8.31318308 C0.579322973,8.31318308 2.9803029,51.2378402 1.55328657,54.2797843 C0.126270235,57.3267201 -1.84959853,97.736557 -1.84959853,97.736557 C-1.84959853,97.736557 9.9557184,101.342564 10.1243658,98.6560288 C10.2860278,95.9664989 11.2909267,67.2632052 13.6280401,58.2681554 C15.534055,50.9303512 19.1395165,34.7642201 19.1395165,34.7642201 L18.0747428,15.6170437 C18.0747428,15.6170437 5.69362976,-2.80334071 0.579322973,8.31318308 Z" id="Shape-1252-copy" fill="#030F63" mask="url(#mask-38)"></path>
                        </g>
                        <path d="M21.7535168,80.3434652 C21.7535168,80.3434652 24.8600216,110.687033 27.3198784,119.613197 C27.9755076,128.536366 25.3120764,166.942533 25.9876639,171.178493 C26.6612555,175.421441 29.6400273,175.240741 32.2316087,175.475351 C34.8231902,175.709961 39.1451536,171.485982 39.1451536,171.485982 C39.1451536,171.485982 38.6771322,135.59164 43.1867034,125.455487 C44.9460249,121.473106 48.4227556,87.6812694 44.9340499,72.3657246 C41.4473401,57.0521764 21.7535168,80.3434652 21.7535168,80.3434652 Z" id="Shape-12511" fill="#2B3FA5"></path>
                        <g id="Clipped" transform="translate(20.956184, 66.888827)">
                            <mask id="mask-40" fill="white">
                                <use xlink:href="#path-39"></use>
                            </mask>
                            <g id="Shape-12512"></g>
                            <path d="M-7.28177495,17.7455061 C-7.28177495,17.7455061 -1.68248219,44.1226659 -1.46992661,53.0677987 C-1.25437729,62.0109347 -1.31724585,103.420111 -0.856209799,107.688017 C-0.389186272,111.956922 -0.464029786,112.62581 -0.464029786,112.62581 C-0.464029786,112.62581 9.95318944,113.950608 12.2703446,108.654411 C14.5904936,103.357215 11.4131369,68.1377517 12.4409878,63.9077821 C13.4728304,59.6768142 18.9922901,26.4200885 16.2689841,10.9468059 C13.5426844,-4.52647677 -7.28177495,17.7455061 -7.28177495,17.7455061 Z" id="Shape-1251-copy" fill="#030F63" mask="url(#mask-40)"></path>
                        </g>
                        <path d="M16.5464041,2.07155697 C11.5917634,-0.016971792 1.02086553,-1.33278485 2.5536607,11.9092063 C4.09044751,25.1521958 7.93840204,35.1705448 8.46130873,43.9419663 C8.98521332,52.7223728 0.682572847,78.3318086 0.682572847,78.3318086 C0.682572847,78.3318086 22.386194,91.4050802 33.4480653,88.7904259 C44.5079409,86.1697815 50.1671084,78.836969 50.1671084,78.836969 C50.1671084,78.836969 45.279328,71.159729 45.1565846,63.6881471 C45.0328434,56.2155669 46.2103813,47.7496377 46.2103813,47.7496377 C46.2103813,47.7496377 50.4425326,25.4746598 42.2666271,17.3781167 C29.0572458,4.29985343 29.8455975,7.68123341 16.5464041,2.07155697 Z" id="Shape-1250" fill="#F7FBFF"></path>
                        <g id="Clipped">
                            <mask id="mask-42" fill="white">
                                <use xlink:href="#path-41"></use>
                            </mask>
                            <g id="Shape-12501"></g>
                            <g id="Group" mask="url(#mask-42)">
                                <g transform="translate(12.815670, -3.993363)">
                                    <path d="M4.31950284,3.26257743 C4.31950284,3.26257743 -5.60674293,8.97807799 5.01205482,13.5604618 C12.7309159,16.8919248 20.114478,16.0613053 28.3342917,14.1604646 C36.5521095,12.2636173 10.3219527,0.292513827 10.3219527,0.292513827 L4.31950284,3.26257743 Z" id="Shape-1265" fill="#2B3FA5"></path>
                                    <path d="M19.8969329,106.381189 C19.8969329,106.381189 20.6084452,88.5068971 23.6301273,68.6439104 C26.334473,50.8634624 18.3920793,44.7636007 16.895209,32.8204508 C15.3943471,20.8902793 28.6895489,17.0756195 32.43871,25.4566897 C36.2297834,33.9106388 45.2798611,56.5430227 44.6461861,57.7480199 C44.0075214,58.9490238 43.3409152,85.0366648 43.6452788,85.4819248 C43.9456508,85.9281831 41.6564372,92.1388606 39.6406518,93.4097483 C37.6238686,94.6756444 19.8969329,106.381189 19.8969329,106.381189 Z" id="Shape-12531" fill="#CFE3F3"></path>
                                </g>
                            </g>
                        </g>
                    </g>
                    <g id="head1" transform="translate(14.968703, 0.000000)">
                        <path d="M15.8418771,28.2479452 C16.0943492,29.3940404 15.9386747,31.8789104 16.6112684,33.1527931 C17.2349644,34.3358269 18.1779927,35.0017201 18.8216469,35.3371626 C19.2327873,35.5498092 19.5132009,35.6346681 19.5132009,35.6346681 C19.5401446,35.6516399 19.5601029,35.6676134 19.5880445,35.6775968 C19.766671,35.7674475 20.0800158,35.8772649 20.4791812,35.9950691 C22.2883984,36.5112113 25.7940686,37.0043916 25.8679142,35.118526 C25.9537348,32.8273341 26.3768501,30.9135149 27.0414605,28.8229895 C27.0963458,28.6283131 27.1582164,28.4416233 27.221085,28.2479452 C27.4905216,27.4313025 28.0643219,26.6036781 28.2948399,25.6762196 C29.1929621,22.1161366 25.8798892,22.0722096 28.2289776,18.428266 C29.5212756,15.5500498 28.547312,12.1037777 28.1930527,9.45418142 L25.374945,10.2298921 L22.5079394,13.7150996 C22.5079394,13.7150996 22.2444903,17.1304231 22.2075675,17.4199419 C22.1696467,17.7304259 20.5570185,23.1613993 20.2995568,23.1364408 C20.2017613,23.1044939 20.1079574,22.1031582 19.4213929,21.8276162 C18.0572451,20.4768612 15.8698187,21.2226217 15.8698187,21.2226217 C15.8698187,21.2226217 15.2151874,25.3717257 15.8418771,28.2479452" id="Layer-37" fill="#AB7C5B"></path>
                        <path d="M5.90265846,33.5092008 L5.2560105,34.9747649 C5.2560105,34.9747649 9.30155191,39.2596433 14.3639672,39.7268667 L14.3739463,39.727865 C14.4228441,39.7318584 14.4807231,39.7378485 14.5296208,39.7328567 C14.6743183,39.7478319 14.8200137,39.7528236 14.9647111,39.7568169 C15.0225901,39.762807 15.0914461,39.7608103 15.1493251,39.765802 C16.5224541,39.7867671 17.9454788,39.5042367 19.385468,38.7594746 C19.0850961,31.3617699 19.6239694,34.848974 19.8175646,34.5694386 C19.8534895,34.5045465 19.8734477,34.4975581 19.8734477,34.4975581 L19.6828462,34.0732633 L18.9224361,32.4130227 L18.4783646,30.3314823 L17.089269,23.7803706 L7.0053529,30.8765763 L5.90265846,33.5092008 Z" id="Layer-35" fill="#AB7C5B"></path>
                        <g id="Clipped" transform="translate(4.989568, 23.119469)">
                            <mask id="mask-44" fill="white">
                                <use xlink:href="#path-43"></use>
                            </mask>
                            <g id="Layer-351"></g>
                            <path d="M7.1819836,16.693255 C13.5875905,20.2004259 15.3938139,18.2446764 15.3938139,18.2446764 C15.093442,10.8469718 15.6323153,15.7228678 15.8259105,15.4433324 C15.8618354,15.3794386 15.8817937,15.3714519 15.8817937,15.3714519 C15.3798432,15.3215348 10.777466,3.249599 10.777466,3.249599 C10.777466,3.249599 5.41168501,9.95046184 7.1819836,16.693255" id="Layer-36" fill="#956A4D" mask="url(#mask-44)"></path>
                        </g>
                        <path d="M19.1459688,22.1560702 C20.2456695,23.6296211 20.2257112,26.4838772 20.2257112,26.4838772 L21.7664897,26.4379535 C20.9651651,25.7221433 21.5000468,20.6126355 22.3562566,17.0475608 C22.2205403,17.3919884 21.8932247,17.6375802 21.5220009,17.6645354 C21.6347651,17.8402434 21.6856587,18.0449032 21.6637046,18.2645382 C21.6098173,18.8086338 21.1228355,19.2029784 20.5729851,19.1480697 L20.5590143,19.1470713 C20.5799705,19.2209486 20.5789726,19.3058075 20.5709893,19.3836781 C20.5460414,19.6312666 20.4302835,19.8558933 20.2486632,20.0086394 C20.424296,20.1973258 20.5200957,20.4648811 20.4921541,20.7474115 C20.4801791,20.860224 20.447248,20.9710398 20.3943586,21.0658822 C20.4153148,21.1467478 20.4153148,21.2256167 20.4073315,21.3034873 C20.3524462,21.847583 19.8574811,22.2479176 19.3156141,22.1940072 C19.2577351,22.1880171 19.2018519,22.1750387 19.1459688,22.1560702" id="Layer-41" fill="#060445"></path>
                        <path d="M1.19749622,17.5507246 C1.06078207,17.6944856 0.956001151,17.877182 0.935044967,18.0888302 C0.921074178,18.2236062 0.937040794,18.3533905 0.974961508,18.4711947 C0.890138859,18.5989823 0.82527448,18.7427434 0.809307864,18.9044746 C0.766397583,19.3287694 1.01787179,19.6971571 1.39208936,19.8558933 C1.39707893,19.8708684 1.39707893,19.8778567 1.3950831,19.8918335 C1.38211022,19.954729 1.34718325,20.0086394 1.34119577,20.0725332 C1.31525002,20.3271101 1.39907475,20.5707052 1.55375135,20.7573949 L1.55275344,20.7643833 C1.4838974,20.8791925 1.42701633,21.0089768 1.41304554,21.1507412 C1.37811857,21.4971654 1.54876178,21.806651 1.81819843,21.9983324 C1.75034031,22.0981665 1.70443629,22.2009956 1.69246133,22.3207965 C1.6535427,22.7101493 1.94193971,23.0605669 2.33511763,23.0995022 C2.3919987,23.1054923 2.44389021,23.0885205 2.4947838,23.0865238 C2.52671703,23.4189712 2.77918915,23.7005033 3.1294568,23.7354452 C3.13644219,23.7364436 3.1444255,23.7304535 3.15141089,23.7304535 C3.14043384,23.7653955 3.12346931,23.799339 3.11847975,23.8422677 C3.07956112,24.2306222 3.36895604,24.5810398 3.76213397,24.6199751 C3.82600043,24.6269635 3.89186272,24.6119884 3.95772502,24.6040017 C4.015604,24.7527544 4.10242248,24.8895271 4.22915749,24.9953512 C4.18325347,25.0911919 4.14433484,25.194021 4.13235988,25.3068335 C4.08046838,25.8229757 4.45967552,26.2892008 4.98757177,26.3421128 C5.00154256,26.3441095 5.01651126,26.3381195 5.03147996,26.3391178 C5.01651126,26.6306333 5.14125045,26.8931969 5.34682063,27.0709015 C5.35280812,27.0858767 5.3518102,27.092865 5.3518102,27.0998534 C5.22906684,27.2446128 5.13226923,27.4143308 5.11231096,27.6120022 C5.08337147,27.901521 5.19413987,28.1630863 5.38474135,28.352771 L5.37775595,28.4166648 C5.30790201,28.5384624 5.26000216,28.6622566 5.24503346,28.8110094 C5.23305849,28.9308103 5.24902511,29.0536062 5.28095834,29.164422 C5.14424419,29.3081831 5.03946327,29.4898811 5.01850709,29.7025277 C4.99256134,29.9571045 5.07538816,30.2076881 5.23006475,30.3943778 C5.22806893,30.4083545 5.21310022,30.421333 5.2111044,30.4353097 C5.1821649,30.7258269 5.29892079,30.9943805 5.49650766,31.1850636 C5.55239082,31.3477931 5.66116339,31.4805725 5.7948838,31.593385 C5.85276279,32.0206748 6.17708468,32.3750857 6.62714368,32.4200111 C7.0342924,32.4599447 7.40252248,32.2403097 7.57416361,31.8998756 C7.67495287,32.1095271 7.84559609,32.2842367 8.07411828,32.3780808 C8.10804734,32.824339 8.4443442,33.2077019 8.91635729,33.2546239 C9.37340168,33.3005476 9.77057126,33.0050387 9.9062875,32.5827406 C10.0569724,32.73349 10.2545593,32.8532909 10.4830815,32.8752544 C10.5689021,32.8842395 10.6427477,32.8632743 10.7235787,32.8492976 C10.8722678,33.0928927 11.1207483,33.2745907 11.4281056,33.3055393 C11.9270624,33.3554563 12.358161,33.0130254 12.4499691,32.5368169 L12.4569545,32.5368169 L12.4589503,32.5158518 C12.4609461,32.4948866 12.4769127,32.4819082 12.4789086,32.460943 C12.4799065,32.4469663 12.473919,32.4389795 12.4749169,32.4250028 C12.5118397,32.2063662 12.5936686,32.0366482 12.7154141,31.8988772 C12.8710886,32.0715902 13.0896316,32.2003761 13.33911,32.2253346 C13.7103338,32.2622732 14.0466307,32.0745852 14.2342384,31.7860647 C14.7561472,31.83099 15.2191791,31.4556139 15.2710706,30.9394718 C15.2810497,30.8406361 15.2610914,30.7527821 15.2481186,30.6659264 C15.3169746,30.6299862 15.3858306,30.5870575 15.4556846,30.5361421 C15.5185531,30.5571073 15.5734384,30.5910509 15.6442902,30.5980393 C16.1652011,30.649953 16.6362163,30.2685868 16.6891057,29.7454563 C16.6990848,29.6466206 16.6801245,29.5517782 16.6601662,29.4639242 C17.1621167,29.4858877 17.6021966,29.1224917 17.6530902,28.6203263 C17.6770401,28.3797262 17.6051903,28.165083 17.4724678,27.9803899 C17.5103885,27.8845492 16.7230348,26.4639104 16.4625793,25.6802129 C15.8169293,23.7803706 15.8249126,21.5460841 17.2030312,21.3264491 C18.0093453,21.1996598 18.6060976,21.5021571 19.0381941,22.0093142 C20.2436736,23.4289546 20.2257112,26.4848756 20.2257112,26.4848756 L21.7664897,26.4379535 C20.9392194,25.6981831 21.53198,20.3011532 22.4311001,16.7340819 C22.8911382,14.8801632 23.4379948,13.5274115 23.9020246,13.5743335 C23.9020246,13.5743335 9.0570631,4.99359513 3.51265559,11.0185813 C3.26217929,11.2861366 3.05361537,11.565672 2.85203684,11.8521958 C2.52172746,11.9120962 2.26027412,12.1437113 2.14850781,12.4611836 C1.73038204,12.5330642 1.38909562,12.8495382 1.34418951,13.2878097 C1.32223541,13.5064463 1.39608101,13.7141012 1.50784733,13.8898092 C1.22044823,14.0245852 0.997913519,14.2961338 0.963984459,14.6355697 C0.944026189,14.8332412 1.003901,15.0249226 1.10369235,15.1846571 C1.0188697,15.3114463 0.947019929,15.4472207 0.931053313,15.6099502 C0.923070005,15.6878208 0.945024102,15.7547096 0.953007411,15.8265902 C0.692551982,15.9723479 0.486981797,16.2229314 0.455048565,16.5483905 C0.407148716,17.021604 0.740451831,17.4409071 1.19749622,17.5507246" id="Layer-39" fill="#314157"></path>
                        <path d="M2.39998201,14.4169331 C2.19042017,14.1174309 2.07765595,13.7510398 2.11657457,13.3616869 C2.15249946,13.0002876 2.31316354,12.6848119 2.54467947,12.4402185 C2.33811137,12.1417146 2.22634506,11.7763219 2.26526369,11.3889657 C2.31915102,10.8598451 2.63149795,10.4205752 3.06459242,10.1739851 C2.87498885,9.88346792 2.77419958,9.53404867 2.81112238,9.16266593 C2.89893877,8.29111449 3.6832988,7.65517146 4.56345852,7.74302544 C4.57044392,7.74402378 4.5764314,7.74701881 4.58341679,7.74701881 C4.58142097,7.68112832 4.5764314,7.61623617 4.58341679,7.548349 C4.5983855,7.40259126 4.63830204,7.26681692 4.69019354,7.13603429 C4.63630621,6.95034292 4.6133542,6.75267146 4.63431038,6.54801162 C4.71314555,5.75732577 5.3667789,5.16830476 6.14415354,5.12936947 C6.38864235,4.46447456 7.05924023,4.0192146 7.8026858,4.09309181 C8.0531621,4.11805033 8.27968847,4.20290929 8.48026908,4.32470686 C8.79461184,3.83951327 9.36242463,3.53801438 9.98312684,3.5999115 C10.0459954,3.60590155 10.1038744,3.62287334 10.1647471,3.63585177 C10.1647471,3.59691648 10.1597575,3.55897954 10.1637492,3.51904591 C10.2515656,2.64749447 11.0359256,2.01155144 11.9160853,2.09940542 C12.1955011,2.12735896 12.4449795,2.23018805 12.6615267,2.37794248 C12.9499237,2.05248341 13.3690474,1.85381361 13.8300835,1.8438302 C14.0955285,1.22186394 14.7411785,0.811545907 15.4556846,0.883426438 C15.8079481,0.918368363 16.1192971,1.06811947 16.3637859,1.28575774 C16.6601662,1.09307799 17.0174192,0.989250553 17.3986222,1.0271875 C17.6580797,1.05314436 17.8925894,1.14599004 18.0981596,1.27577434 C18.3167026,0.566952434 19.0142442,0.0857522124 19.7876272,0.162624447 C20.5101166,0.234504978 21.0639586,0.772610619 21.1946852,1.44349558 C21.5180092,1.15497511 21.9560932,0.992245575 22.4241147,1.03916759 C23.2274351,1.11903485 23.8261832,1.77594303 23.8591143,2.5526521 C24.1564926,2.35797566 24.5167393,2.25314989 24.8989402,2.29208518 C25.7790999,2.37993916 26.4217562,3.15664823 26.3339399,4.02919801 C26.3229628,4.13701881 26.3010087,4.24184458 26.2700734,4.34167865 C26.3938147,4.32470686 26.5205497,4.31771847 26.6502784,4.3306969 C27.5314361,4.41855088 28.1730945,5.1962583 28.086276,6.06780973 C28.0603302,6.32138827 27.970518,6.55100664 27.8407893,6.7536698 C28.4545061,6.99626659 28.8656464,7.59427268 28.8436924,8.27014934 C28.94049,8.26216261 29.0392834,8.26016593 29.1390748,8.27014934 C30.0192345,8.35800332 30.6618908,9.13571073 30.5750723,10.0082605 C30.4872559,10.8758186 29.7088834,11.5077683 28.8337132,11.427901 C28.7389114,11.7813136 28.5273538,12.0778208 28.2439463,12.2874723 C28.2928441,12.468172 28.3147982,12.6598534 28.2948399,12.8575249 C28.2080214,13.7300747 27.4236614,14.3650194 26.5435017,14.2771654 C26.3948126,14.2621903 26.2580984,14.223255 26.1263738,14.1723396 C25.9108245,14.8851549 25.2112871,15.3713468 24.4349104,15.2934762 C24.1554946,15.266521 23.9040204,15.1626936 23.6884711,15.0149392 C23.6295942,15.4302489 23.4140449,15.7886532 23.1046917,16.0322483 C23.1735477,16.2379065 23.2034851,16.4595382 23.1805331,16.6891565 C23.0947126,17.5367478 22.3492712,18.155719 21.4990489,18.108797 C21.4980509,18.1187804 21.5000468,18.1297622 21.4990489,18.1397456 C21.4112325,19.011297 20.6268724,19.64724 19.7467127,19.5593861 C19.4493345,19.5304342 19.1828916,19.4166233 18.958361,19.2518971 C18.6340391,19.6921654 18.0951658,19.9597207 17.5083927,19.9008186 C17.0743003,19.8578899 16.6990848,19.6452434 16.4396273,19.3367561 C16.3138902,19.4645437 16.1701907,19.5713662 16.0085287,19.6502351 C16.0324786,19.7870077 16.0444536,19.9277738 16.0304828,20.0715348 C15.9426664,20.9440846 15.1573084,21.5790293 14.2781466,21.4911753 C13.4628513,21.4093114 12.8611094,20.7364298 12.843147,19.9467423 C12.5567458,20.1184569 12.2174552,20.2063108 11.8592043,20.1703706 C11.320331,20.1164602 10.8742636,19.8029812 10.6257831,19.368703 C10.3004633,19.6741952 9.85240017,19.8479065 9.37140586,19.7989878 C8.70380171,19.7330973 8.17490755,19.2698673 7.99528311,18.6698645 C7.66896539,19.0841759 7.14306497,19.3317644 6.57525218,19.2758573 C5.69509245,19.1880033 5.05243615,18.4092976 5.14025254,17.5377461 C5.15023167,17.4389104 5.17118786,17.3460647 5.19813152,17.2542174 C5.13127131,17.2552157 5.06441111,17.2602074 4.99555508,17.2542174 C4.7171372,17.2262638 4.46666091,17.1234347 4.25111159,16.9756803 C3.92778761,17.2632024 3.49269732,17.4219386 3.0266717,17.3760149 C2.14651198,17.288161 1.50285776,16.5104535 1.59067415,15.6389021 C1.64456148,15.1047898 1.96189798,14.6615265 2.39998201,14.4169331 Z" id="Layer-38" fill="#202C3B"></path>
                    </g>
                    <g id="hand2" transform="translate(34.769768, 37.096239)">
                        <path d="M61.4221102,13.9927434 L64.7122311,10.3877351 C65.2461148,9.99239215 71.0529736,1.63428374 73.3162415,1.1011698 C75.5795093,0.568055863 76.3648673,0.547090708 75.467743,1.81598175 C74.5696208,3.08487279 72.8791553,4.95576327 72.5987416,6.10185841 C72.3193259,7.2469552 71.0270278,8.61168695 74.7502432,8.95910951 C78.4734585,9.30553374 84.08772,9.24762998 85.5057551,11.8153623 C86.9237902,14.3840929 88.7369991,16.0353485 86.222257,16.1012389 C83.7085128,16.1681278 77.9725059,14.4130448 75.467743,14.6726134 C72.9619822,14.932182 66.1462328,17.5298645 66.1462328,17.5298645 L63.825086,17.7225442 C62.9159868,18.4992533 62.3890884,19.219057 59.9980876,21.0819607 C56.439528,23.8543529 45.8217282,32.4600498 43.3708526,33.5142976 C40.919977,34.5685454 35.0482538,35.7475857 29.5138255,36.2777046 C23.980395,36.8078236 2.64699978,31.1961504 1.10921505,22.4626659 C-0.428569681,13.7291814 10.8079365,12.1018861 10.8079365,12.1018861 C10.8079365,12.1018861 30.003801,20.1385288 34.3636852,22.4626659 C37.7066954,24.2447041 37.2795885,24.4593473 37.2795885,24.4593473 C37.2795885,24.4593473 37.6208749,22.7611698 41.2921987,21.0819607 C44.9635226,19.4027517 48.9242413,18.7099032 52.3770221,16.9378485 C55.8298029,15.1647954 60.6906396,14.1744414 60.6906396,14.1744414 L61.4221102,13.9927434 Z" id="Shape-1508" fill="#95694D"></path>
                        <g id="Clipped" transform="translate(0.157206, 0.000000)">
                            <mask id="mask-46" fill="white">
                                <use xlink:href="#path-45"></use>
                            </mask>
                            <g id="Shape-15081"></g>
                            <path d="M61.1900612,11.2383213 C62.772752,9.48224004 64.3085409,7.806026 64.5550255,7.62432799 C65.0889093,7.22898507 70.895768,-1.128125 73.1590359,-1.66123894 C75.4223038,-2.19435288 76.2076617,-2.21631637 75.3105374,-0.947425332 C74.4124153,0.321465708 72.7219498,2.19235619 72.4415361,3.33845133 C72.1621203,4.48454646 70.8698223,5.84827987 74.5930376,6.19570243 C78.316253,6.543125 83.9305144,6.48522124 85.3485495,9.05295354 C86.7665846,11.6206858 88.5797935,13.2729397 86.0650514,13.3388302 C83.5513073,13.4047207 77.8153004,11.6506361 75.3105374,11.9102046 C72.8047766,12.1697732 65.9890273,14.7674558 65.9890273,14.7674558 L63.5680891,14.9681222 C62.7348313,15.7677931 62.1789935,16.4965819 59.8408821,18.3185537 C56.2823225,21.0909458 45.6645226,29.697641 43.213647,30.7518888 C40.7627714,31.8061366 34.8910483,32.9841787 29.3566199,33.5142976 C23.8231894,34.0454148 2.48979423,28.4337417 0.952009497,19.7002572 C-0.585775236,10.9667727 10.650731,9.33947732 10.650731,9.33947732 C10.650731,9.33947732 29.6659731,17.7534928 34.2064796,19.7002572 C36.140436,20.52888 36.9297856,21.0280503 37.1972264,21.3295492 C37.0235895,21.6050913 36.9776854,21.7728125 36.9776854,21.7728125 C36.9776854,21.7728125 37.5614649,21.7308822 37.1972264,21.3295492 C37.5774315,20.6906112 38.5923095,19.4826189 41.1349932,18.3185537 C44.806317,16.6393446 48.7670358,15.9474945 52.2198165,14.1744414 C55.6725973,12.4013883 60.5334341,11.4120326 60.5334341,11.4120326 L61.1900612,11.2383213 Z" id="Shape-1508-copy-2" fill="#AB7D5B" mask="url(#mask-46)"></path>
                        </g>
                        <path d="M11.9325851,12.1797566 C11.9325851,12.1797566 7.10467947,11.231333 3.88042089,13.4835896 C0.6551644,15.7368446 -1.69691776,23.3831361 1.80176703,27.2986283 C5.30045183,31.2131222 16.4411584,34.4607246 18.4290021,35.5868529 C20.4168458,36.7129812 22.5863098,36.9685564 22.5863098,36.9685564 C22.5863098,36.9685564 23.6720397,32.4760232 25.3575156,27.9884817 C27.0429916,23.5019386 28.8073027,21.3455227 28.1287215,19.7002572 C27.4501403,18.0549917 23.2788618,16.9378485 23.2788618,16.9378485 L11.9325851,12.1797566 Z" id="Shape-1512" fill="#F7FBFF"></path>
                    </g>
                </g>
                <path d="M484.247788,244.159274 L495.176991,249.690265 L495.176991,248.418559 L486.458334,244.007297 C491.252001,242.618911 495.102277,241.291317 495.102277,237.69779 C495.102277,234.47097 492.320914,231.694199 489.886225,230.462693 C487.551155,229.281192 485.539846,229.21648 484.372311,230.190114 L485.340608,231.559871 C486.235187,230.765667 487.825107,230.690169 489.886225,231.733419 C491.699291,232.651165 493.661786,234.621967 493.661786,236.96928 C493.661786,240.122563 489.886225,241.390347 484.247788,243.01013 L484.247788,244.159274 Z" id="_2-copy" fill="#CFE3F3" fill-rule="nonzero"></path>
            </g>
        </g>
    </g>
</svg>