<?xml version="1.0" encoding="utf-8"?>
<!-- Generator: Adobe Illustrator 19.0.0, SVG Export Plug-In . SVG Version: 6.00 Build 0)  -->
<svg version="1.1" id="Layer_1" xmlns="http://www.w3.org/2000/svg" xmlns:xlink="http://www.w3.org/1999/xlink" x="0px" y="0px"
	 viewBox="0 0 692.1 412.8" style="enable-background:new 0 0 692.1 412.8;" xml:space="preserve">
<style type="text/css">
	.st0{fill:#FB372B;}
	.st1{fill:#F04E29;}
</style>
<path class="st0" d="M383.3,286.5c4.6,0,8.3-3.7,8.3-8.3c0-4.6-3.7-8.3-8.3-8.3c-4.6,0-8.3,3.7-8.3,8.3
	C375,282.7,378.7,286.5,383.3,286.5z"/>
<path class="st1" d="M686.8,327c0-1.7-1.4-3.1-3.1-3.1c-1.7,0-3.1,1.4-3.1,3.1c0,0,0,4.5-2.6,11.7c-0.3,0.7-0.6,1.5-0.9,2.2
	c-1.5,2.9-3.1,5.2-4.8,6.8c-1.8,1.6-3.4,2.4-4.8,2.4c-1.4,0-2.5-0.8-3.3-2.3c-0.8-1.5-1.2-3.8-1.2-6.7c0-2,0.3-7.4,0.8-16l0.4-7.2
	c-0.4-5.9-6-6-7.7-5.5c0.7-0.7,1.1-1.5,1.4-2.4c0.6-1.3,1-2.8,1-4.3c0-2.9-1.3-5.5-3.9-7.5c-2.6-2.1-6.4-3.1-11.3-3.1
	c-5.3,0-9.9,1.5-13.8,4.6c-4,3-7,7-9.1,11.8c-2.1,4.8-3.2,9.7-3.2,14.7c0,6.2,1.6,11.2,4.8,15.2c3.2,4,7.7,5.9,13.6,5.9
	c2.1,0,4.2-0.4,6.4-1.3c2.1-0.9,3.9-1.9,5.3-3c1.4-1.1,2.2-1.8,2.2-2.1c0.5,5.2,2.1,9.1,4.8,11.8c2.6,2.7,5.8,4.1,9.5,4.1
	c3.2,0,6.5-1.1,9.8-3.2c3.3-2.1,6.2-5.1,8.7-9c1.5-2.4,2.6-4.9,3.3-7.5C685.8,337.1,687.6,332.1,686.8,327z M650.6,318.4
	c0.1,0.9,0.1,2.2,0,3.8c0,4.3-0.7,8-2.1,10.9c-1.4,3-3.1,5.1-4.9,6.6c-1.8,1.4-3.4,2.1-4.6,2c-2.4,0-4.3-1.6-5.6-4.8
	c-1.3-3.2-2-7.1-2-11.7c0-6.5,1.3-12.2,3.8-17.2c1.3-2.5,2.8-4.3,4.5-5.6c0.1-0.1,0.2-0.1,0.3-0.2c0.3-0.2,0.7-0.3,1.1-0.5
	c0.9-0.3,1.4-0.4,1.4-0.4c5.5,0,5.2,5.5,5,7.4c0,0,0,0,0,0.1c0,0.1,0-0.7,0-0.6c0,0.1,0-0.8,0-0.8h0c-0.3,10,1.1,5.7,3.5,6.3
	c0.2,0.1,0.3,0.5,0.5,0.5c-0.8,0.7-0.6,1.4-0.8,1.8C650.5,316.6,650.5,317.5,650.6,318.4z"/>
<path class="st1" d="M669.2,367.6c-0.5-1-1-1.7-1.8-1.9c-0.7,0.4-1.8,1-3,1.9c-1.3,0.9-3.1,1.7-5.3,2.5c-2.3,0.8-5.5,1.2-9.7,1.2
	c-2.5,0-8.4-0.4-17.6-1.1c-7.6-0.7-14.7-1.2-21.3-1.5c2.1-29.4,0.7-53.4,0.7-53.4c-0.6-8.4-5.8-8.2-8.1-7.7c-0.1,0-0.1,0-0.2,0
	c-0.6,0.1-1,0.3-1,0.3c1.7-2.1,2.6-4.5,2.6-7.2c0-3.4-1.5-6.4-4.4-8.8c-2.9-2.5-6.9-3.7-11.8-3.7c-3.6,0-7.1,0.8-10.5,2.4
	c-5,2.5-9,6.7-12,12.5c-3,5.9-4.5,13.5-4.5,22.9c0,4.1,0.6,7.7,1.7,10.7c-1.4,2.6-2.8,4.7-4.3,6.2c-1.6,1.6-2.8,2.4-3.9,2.4
	c-1.9,0-3.3-0.9-4.1-2.6c-0.8-1.7-1.2-4.2-1.2-7.5c0-2.8,0.4-8.1,1.4-16c1.1-9,1.7-16,1.7-20.7c0-3.7-1.2-6.8-3.6-9.4
	c-2.4-2.6-5.2-3.9-8.3-3.9c-3.1,0-6.3,2-9.5,6.1c-3.2,4.1-6.1,8.9-8.7,14.6c-2.5,5.7-4.4,10.8-5.6,15.4c0.1-5,0.4-9.9,0.9-14.9
	c0.5-4.9,1.1-11.8,1.1-12.5c0-3.3-2.7-6-6-6c-2.7,0-4.8,1.7-5.6,4.1c-0.1,0.2-0.2,0.2-0.3,0.4l0.1-0.1c-0.2,0.3-0.5,1.8-1.1,4.7
	c-0.6,2.9-1.1,6.4-1.5,10.7c-0.5,4.3-0.7,8.7-0.7,13.4c0,6.1,0.6,11.4,1.8,15.8c-1.4,2.6-2.9,4.8-4.5,6.3c-1.7,1.6-3.4,2.4-4.8,2.4
	c-1.4,0-2.5-0.8-3.3-2.3c-0.8-1.5-1.2-3.8-1.2-6.7c0-2,0.3-7.4,0.8-16l0.4-7.2c0.1-5.1-4.9-5.5-7.2-5.4c3.5-3.9,1.5-9.8,1.5-9.8
	s-0.1,0-0.1,0.1c-0.6-1.7-1.7-3.3-3.4-4.6c-2.6-2.1-6.4-3.1-11.3-3.1c-5.3,0-9.9,1.5-13.8,4.6c-4,3-7,7-9.1,11.8
	c-2.1,4.8-3.2,9.7-3.2,14.7c0,4.3,0.8,8,2.4,11.2c-0.9,2.6-2,4.9-3.3,7c-2.3,3.6-4.5,5.5-6.7,5.5c-2.6,0-4.7-2.8-6.4-8.4
	c-1.7-5.6-2.5-13.8-2.5-25.9c0-10.5,0.6-24,1.7-33.3c0,0,8.8,0.5,16.9-0.6c1.5-0.1,2.8-0.3,3.8-0.6c2.6-0.4,4.6-2.5,4.6-5.2
	c0-3-2.4-5.4-5.4-5.4c0,0-0.5,0-1.3,0.1c-0.2,0-0.4-0.1-0.6-0.1c-0.8,0.1-2.8,0.3-5.9,0.7c-0.2,0-0.5,0-0.7,0.1
	c-3.5,0.3-7.4,0.6-10.5,0.7l2.5-20.7c0-0.1,0-0.1,0-0.2c0.1-0.4,0.1-0.8,0.1-1.2c0-0.9-0.2-1.8-0.6-2.6c-0.1-0.3-0.3-0.5-0.4-0.8
	c0-0.1-0.1-0.2-0.1-0.2c-1.6-2.3-4.3-2.7-4.3-2.7c-0.2,0-0.4,0-0.6,0c-0.1,0-0.1,0-0.2,0c-0.1,0-0.1,0-0.2,0
	c-2.6,0.1-3.9,1.5-3.9,1.5c0,0-0.1,0.1-0.1,0.1c0,0-0.1,0.1-0.1,0.1c-4.4,3.7-5.6,27.1-5.6,27.1c-0.5,0-0.9,0-1.4,0
	c-7.9-0.4-13.2-1.5-13.2-1.5c-1.1-0.4-2.2-0.5-3.3-0.5c-0.8,0-1.5,0.3-2.1,0.9c-0.6,0.6-2.8,1.3-2.8,2.1c0,1.2,1.1,2.2,1.1,3.2v0
	c9,2.2,12.7,3.6,18.9,4.4c-0.8,7.7-0.5,15-0.8,22c0,0,0.4,2.4,0.4,3.4c-0.3,9.2-1.8,34.2-12.3,41.2c-1.6,0.8-3,1.5-4.5,1.8
	c0,0,0.1,0,0,0c-5.4,1.1-10.3-1.4-12.9-11.6c-0.3-1.9-0.4-4-0.5-6.3l-0.1-4.3c0-3.6,0.2-7.4,0.5-11.4c0.3-4,0.6-7.2,0.9-9.6
	c0.3-2.4,0.5-4,0.6-4.7c-0.1-1.1-0.1-2.5-1.1-3.5c-0.9-1.1-2.5-1.4-3.9-1.7l-4.8-0.7c-0.4,0-0.7,0.1-1.1,0.4
	c-0.4,0.3-0.6,0.6-0.8,1.1l0.1-0.1c-0.1,0-0.4,1.4-1,4.4c-0.6,2.9-1.1,6.5-1.6,10.7c-0.5,4.3-0.7,8.7-0.7,13.3c0,2.3,0,4,0.1,5.1
	c0.3,7.4,1.8,13.6,4.6,18.7c0.2,0.4,1,1.7,1.9,2.8c0.3,0.4,12.9,14.4,30.2,2.5c0,0,2.2-1.4,5.2-4.3c2-1.7,3.9-3.9,5.8-6.5
	c0.1,0.2,0.1,0.4,0.1,0.5c2.7,8.5,7.1,12.8,13.4,12.8c4.5,0,8.1-1,10.8-3c2.7-2,5.3-5.1,8-9.3c0.3-0.5,0.5-0.9,0.7-1.4
	c3,2.6,6.9,4,11.6,4c2.1,0,4.2-0.4,6.4-1.3c2.1-0.9,3.9-1.9,5.3-3c1.4-1.1,2.1-1.8,2.1-2.1c0.5,5.2,2.1,9.1,4.8,11.8
	c2.6,2.7,5.8,4.1,9.5,4.1c3.2,0,6.5-1.1,9.8-3.2c2.1-1.3,4-3,5.7-5.1c1,1.8,2.2,3.4,3.5,4.7c0.8,0.5,2,0.7,3.6,0.7
	c2.6,0,4.3-0.2,5.1-0.5c0.8-0.4,1.2-0.9,1.2-1.7c0-0.6-0.2-1.4-0.7-2.4c-0.5-0.9-0.7-2.1-0.7-3.5c0-7.8,1.3-15.6,3.9-23.2
	c2.6-7.7,5.5-14,8.7-19.1c3.2-5.1,5.5-7.5,6.9-7.3c0.6,0,1,1.1,1,3.3c0,2-0.5,6.3-1.5,12.7c-0.8,5.4-1.4,9.8-1.9,13.4
	c-0.4,3.6-0.6,7.1-0.6,10.5c0,6.4,1,11.4,2.9,15.1c1.9,3.7,5.3,5.6,10.1,5.7c6.3-0.1,11.9-3.2,16.7-9.3c0.1,0.1,0.1,0.2,0.2,0.2
	c3.7,4,8.3,5.9,13.8,5.9c2.8,0,5.6-0.8,8.4-2.3c2.9-1.6,5-3.1,6.5-4.6l0.6,8.6c0.6,8.3,0.9,14.3,1,18.1c0,0-32.2,0.6-31.4,26.9
	c0,0,0.2,15.9,18.2,17c0,0,25.5,1,25.8-35.4c5.6,0.9,10.7,1.9,15.4,2.9c6.4,1.3,11.7,2.3,15.7,2.9c4,0.6,7.6,1,10.9,1
	c6.4,0,11-1.3,13.9-4c2.9-2.7,4.4-5.7,4.4-9C669.9,369.8,669.7,368.6,669.2,367.6z M479.4,313.7c0.1,0.9,0.1,2.1,0,3.8
	c0,4.3-0.7,8-2.1,10.9c-1.4,3-3.1,5.1-4.9,6.6c-1.8,1.4-3.4,2.1-4.6,2c-2.4,0-4.3-1.6-5.6-4.8c-1.3-3.2-2-7.1-2-11.7
	c0-6.5,1.3-12.2,3.8-17.2c0.6-1.1,1.2-2.1,1.9-3c0.2-0.2,0.3-0.4,0.5-0.5c0.5-0.6,1.1-1.1,1.6-1.5c2.2-1.7,3.9-1.6,3.9-1.6
	c5.5,0,5.2,5.5,5,7.4c0,0,0,0,0,0.1c0,0.1,0-0.4,0-0.2c0,0.1,0-0.4,0-0.4h0c-0.3,4,1.1,5.3,3.5,6C479,310.4,479.3,312.8,479.4,313.7
	z M593.9,333.3c-1.4,3.2-3.1,5.6-5.1,7.2c-1.9,1.6-3.6,2.4-4.8,2.5c-2.6,0-4.7-2.1-6.2-6.2c-1.6-4.1-2.3-9.1-2.3-14.7
	c1.4-26.2,11.7-25.3,11.7-25.3c5.9-0.3,4.9,6.8,4.9,6.8h0c-0.3,4,1.2,4.5,3.6,5.1c0.1,0,0.4-0.2,0.4-0.2v0c0,0-0.1,2.1-0.2,2.6
	c-0.1,0.5-0.2,1.4-0.2,1.9c0.3,3.3,0.4,6.2,0.4,8.1C596.1,325.8,595.3,330.1,593.9,333.3z M597.3,376.5
	c3.6,32.7-14.5,29.6-14.5,29.6c-7.5-0.6-9.1-8.5-9.1-8.5C570.4,376,597.3,376.5,597.3,376.5z"/>
<g>
	<path class="st1" d="M234.7,395.9c-11.9,0-21-4.8-27.3-14.3c-6.3-9.5-9.5-21.1-9.5-34.8c0-11.2,2-22,6.1-32.2
		c2.6-6.6,6-12.1,10-16.8l0-0.2c0,0,11.9-16,37.7-19.4c-0.4-5-0.7-10.1-1.3-14.9c-2.3-18.6-4.9-37.3-8-56.2
		c-12.1,12.5-25.8,21.9-41.1,28.2c-15.4,6.4-30.7,9.5-46.1,9.5c-16,0-29.7-2.8-41.3-8.4c-11.6-5.6-20.3-13.1-26.2-22.6
		c-5.9-9.4-8.9-19.7-8.9-31c0-15.7,5.8-31.1,17.3-46.2c11.6-15,29.1-27.4,52.5-37.1c23.4-9.7,51.8-14.6,85.2-14.6
		c27.4,0,53.4,3.7,78,11.2c20.9,6.4,38.4,15.2,52.5,26.4c5.5-21.8-0.1-45.9-17.2-63c-21.7-21.7-54.6-25.1-79.9-10.4
		C259.7,20.9,234,0,203.3,0c-30.7,0-56.4,20.9-63.9,49.2c-25.3-14.7-58.2-11.3-79.9,10.4c-21.7,21.7-25.1,54.6-10.4,79.9
		C20.9,147,0,172.7,0,203.3c0,30.7,20.9,56.4,49.2,63.9c-14.7,25.3-11.3,58.3,10.4,79.9c21.7,21.7,54.6,25.1,79.9,10.4
		c7.5,28.3,33.2,49.2,63.9,49.2c13.6,0,26.2-4.1,36.8-11.2C238.4,395.7,236.6,395.9,234.7,395.9z"/>
	<path class="st1" d="M282.1,274.6c9.6-3.3,17.3-6.7,23.4-10c0,0,0.1-0.1,0.1-0.1c11.2-5.7,21.6-15,31-27.8
		c9.4-12.8,14.1-31.3,14.1-55.7c0-18.4-5-33.8-14.9-46c-9.9-12.3-23.1-21.3-39.6-27c-16.5-5.7-34.5-8.6-54.2-8.6
		c-28.8,0-53.2,3.8-73.2,11.5c-19.9,7.7-34.8,17.4-44.7,29.2c-9.8,11.8-14.7,23.9-14.7,36.4c0,8.4,2.3,16.1,6.8,23
		c4.5,6.9,11.1,12.5,19.8,16.6c8.7,4.1,19,6.1,30.8,6.1c1.9,0,3.8-0.2,5.7-0.4c51.9-3,60.7-75.3,60.7-75.3
		c3.2-23.7,23.3-20.7,23.3-20.7c36.7,2.8,25.7,111.5,25.7,132.6C282.3,263.9,282.3,269.3,282.1,274.6z"/>
	<path class="st1" d="M253.2,302.4c-2,0.1-21.8,2.3-27.7,32.3c-0.4,3.6-0.7,7.6-0.6,12.1c0.4,3.6,1,7.1,1.8,10.4
		c1.6,6.5,3.6,11.8,6,15.7c2.4,3.9,4.5,5.8,6.3,5.8c9.8,0,14.7-18.7,14.7-56.2C253.8,315.6,253.5,309.1,253.2,302.4z"/>
	<path class="st1" d="M406.6,203.3c0-15.6-5.5-30-14.5-41.3c1.4,5.5,2.2,11.1,2.2,17.1c0,16.6-4.7,32.4-14.1,47.6
		c-9.4,15.1-20.6,27.4-33.6,36.8c-20.7,15-44.5,23.9-65.2,29.2c-1.4,26.3-4.4,48.4-9.1,65.9c-0.1,0.5-0.3,0.9-0.4,1.3
		c24.6,11.7,54.8,7.4,75.1-12.9c21.7-21.7,25.1-54.6,10.4-79.9C385.8,259.7,406.6,234,406.6,203.3z"/>
</g>
<g>
	<path class="st1" d="M371,395.3l0.9-1.1c2.1,1.9,4,2.8,6.9,2.8c2.9,0,4.8-1.6,4.8-3.8v-0.1c0-2-1.1-3.2-5.4-4.1
		c-4.6-0.9-6.5-2.5-6.5-5.4v-0.1c0-2.8,2.6-5,6.2-5c2.8,0,4.6,0.8,6.6,2.3l-0.9,1.1c-1.8-1.6-3.6-2.2-5.7-2.2
		c-2.8,0-4.7,1.6-4.7,3.6v0.1c0,2,1,3.3,5.6,4.2c4.4,0.9,6.3,2.5,6.3,5.3v0.1c0,3.1-2.7,5.2-6.3,5.2
		C375.6,398.3,373.2,397.3,371,395.3z"/>
	<path class="st1" d="M398.6,378.8h1.4l8.9,19.3h-1.6l-2.4-5.4h-11.3l-2.4,5.4h-1.5L398.6,378.8z M404.3,391.4l-5-11.1l-5.1,11.1
		H404.3z M395.3,377.1c0.5-2,1.2-2.5,2.3-2.5c1,0,2.6,1.1,3.5,1.1c0.7,0,1-0.3,1.4-1.4l0.9,0.2c-0.5,2-1.2,2.5-2.3,2.5
		c-1,0-2.6-1.1-3.5-1.1c-0.7,0-1,0.3-1.4,1.4L395.3,377.1z"/>
	<path class="st1" d="M413.8,388.5L413.8,388.5c0-5.3,3.9-10,9.7-10c5.8,0,9.6,4.6,9.6,9.8c0,0,0,0,0,0.1c0,5.2-3.9,9.9-9.7,9.9
		C417.6,398.4,413.8,393.8,413.8,388.5z M431.5,388.5L431.5,388.5c0-4.8-3.4-8.7-8.2-8.7c-4.7,0-8.1,3.8-8.1,8.6v0.1
		c0,4.7,3.4,8.6,8.2,8.6C428.1,397.1,431.5,393.3,431.5,388.5z"/>
	<path class="st1" d="M449.4,378.9h6.9c4.2,0,7.1,2.2,7.1,5.9v0.1c0,4-3.5,6.1-7.5,6.1h-5.2v7.1h-1.4V378.9z M456,389.6
		c3.6,0,6-1.9,6-4.7v-0.1c0-3-2.4-4.6-5.8-4.6h-5.4v9.4H456z"/>
	<path class="st1" d="M474.6,378.8h1.4l8.9,19.3h-1.6l-2.4-5.4h-11.3l-2.4,5.4h-1.5L474.6,378.8z M480.3,391.4l-5-11.1l-5.1,11.1
		H480.3z"/>
	<path class="st1" d="M489.6,390.1v-11.2h1.4V390c0,4.5,2.4,7.1,6.5,7.1c3.9,0,6.4-2.4,6.4-7v-11.2h1.4v11c0,5.5-3.2,8.4-7.9,8.4
		C492.9,398.4,489.6,395.5,489.6,390.1z"/>
	<path class="st1" d="M512.4,378.9h1.4v17.8H525v1.3h-12.7V378.9z"/>
	<path class="st1" d="M529,388.5L529,388.5c0-5.3,3.9-10,9.7-10c5.8,0,9.6,4.6,9.6,9.8c0,0,0,0,0,0.1c0,5.2-3.9,9.9-9.7,9.9
		C532.8,398.4,529,393.8,529,388.5z M546.8,388.5L546.8,388.5c0-4.8-3.4-8.7-8.2-8.7c-4.7,0-8.1,3.8-8.1,8.6v0.1
		c0,4.7,3.4,8.6,8.2,8.6C543.4,397.1,546.8,393.3,546.8,388.5z"/>
</g>
<g>
	<path class="st1" d="M672.3,282L672.3,282c0-5.4,4.4-10,9.9-10c5.5,0,9.9,4.5,9.9,9.9v0.1c0,5.4-4.4,9.9-9.9,9.9
		C676.6,291.9,672.3,287.4,672.3,282z M691.2,282L691.2,282c0-5.1-3.9-9.1-9.1-9.1c-5.2,0-9.1,4.1-9.1,9.1v0.1c0,5,3.9,9.1,9.1,9.1
		C687.3,291.1,691.2,287,691.2,282z M678.4,276.7h4.5c1.2,0,2.3,0.4,2.9,1c0.4,0.4,0.8,1.1,0.8,1.9v0.1c0,1.6-1.1,2.6-2.7,2.9
		l3.3,4.2h-1.5l-3.2-4h-0.1h-2.8v4h-1.2V276.7z M682.6,281.6c1.5,0,2.7-0.7,2.7-1.9v-0.1c0-1.1-1-1.8-2.5-1.8h-3.3v3.8H682.6z"/>
</g>
</svg>
